<svg xmlns="http://www.w3.org/2000/svg" width="30.117" height="29.151" viewBox="0 0 30.117 29.151">
  <g id="angle-double-down" transform="translate(-0.366 32.034)">
    <path id="Path_13" data-name="Path 13" d="M30.483-29.53a.954.954,0,0,0-.3-.694l-1.509-1.509a.954.954,0,0,0-.694-.3.954.954,0,0,0-.694.3l-11.86,11.86L3.565-31.732a.954.954,0,0,0-.694-.3.954.954,0,0,0-.694.3L.668-30.224a.954.954,0,0,0-.3.694.954.954,0,0,0,.3.694L14.73-14.773a.954.954,0,0,0,.694.3.954.954,0,0,0,.694-.3L30.181-28.835A.954.954,0,0,0,30.483-29.53Zm0,11.588a.954.954,0,0,0-.3-.694l-1.509-1.509a.954.954,0,0,0-.694-.3.954.954,0,0,0-.694.3L15.424-8.284,3.565-20.144a.954.954,0,0,0-.694-.3.954.954,0,0,0-.694.3L.668-18.635a.954.954,0,0,0-.3.694.954.954,0,0,0,.3.694L14.73-3.184a.954.954,0,0,0,.694.3.954.954,0,0,0,.694-.3L30.181-17.247a.954.954,0,0,0,.3-.694Z" transform="translate(0 0)" fill="#f5a361"/>
  </g>
</svg>
