<svg xmlns="http://www.w3.org/2000/svg" width="39.077" height="39.077" viewBox="0 0 39.077 39.077">
  <path id="facebook-square" d="M31.75,0a7.06,7.06,0,0,1,5.178,2.149,7.052,7.052,0,0,1,2.149,5.178V31.75a7.338,7.338,0,0,1-7.327,7.327H26.967V23.94H32.03l.763-5.9H26.967V14.272a3.26,3.26,0,0,1,.6-2.137,2.969,2.969,0,0,1,2.328-.712L33,11.4V6.131A34.1,34.1,0,0,0,28.469,5.9a7.557,7.557,0,0,0-5.534,2.035,7.693,7.693,0,0,0-2.073,5.75v4.351H15.773v5.9h5.089V39.077H7.327a7.06,7.06,0,0,1-5.178-2.149A7.052,7.052,0,0,1,0,31.75V7.327A7.06,7.06,0,0,1,2.149,2.149,7.052,7.052,0,0,1,7.327,0Z" fill="#fff"/>
</svg>
