<svg id="Layer_1" data-name="Layer 1" xmlns="http://www.w3.org/2000/svg" viewBox="0 0 1080 1080"><defs><style>.cls-1{fill:#1e4759;}.cls-2{fill:#276d82;}.cls-3{fill:#6fbad1;}</style></defs><path class="cls-1" d="M960,102.21c241.79,0,437.79,196,437.79,437.79S1201.79,977.79,960,977.79,522.21,781.79,522.21,540,718.21,102.21,960,102.21ZM960,0A540.11,540.11,0,0,0,749.78,1037.52a540.11,540.11,0,0,0,420.44-995A536.61,536.61,0,0,0,960,0Z" transform="translate(-420)"/><path class="cls-2" d="M1203.08,302.44H716.92c-62,0-112.23,51.62-112.23,115.3V627.85c0,63.68,50.25,115.3,112.23,115.3H917.25V788H837.17a32.62,32.62,0,0,0-32.63,32.62v4.31a32.62,32.62,0,0,0,32.63,32.62h245.66a32.62,32.62,0,0,0,32.63-32.62v-4.31A32.62,32.62,0,0,0,1082.83,788h-80.09v-44.8h200.34c62,0,112.23-51.62,112.23-115.3V417.74C1315.31,354.06,1265.06,302.44,1203.08,302.44Zm48.3,325.41c0,28.32-21.67,51.37-48.3,51.37H716.92c-26.63,0-48.3-23.05-48.3-51.37V417.74c0-28.33,21.67-51.37,48.3-51.37h486.16c26.63,0,48.3,23,48.3,51.37Z" transform="translate(-420)"/><rect class="cls-3" x="500.79" y="403.08" width="275.61" height="32.13" rx="16.06"/><rect class="cls-3" x="500.79" y="610.38" width="275.61" height="32.13" rx="16.06"/><rect class="cls-3" x="500.79" y="541.19" width="275.61" height="32.13" rx="16.06"/><rect class="cls-3" x="500.79" y="472.27" width="275.61" height="32.13" rx="16.06"/><rect class="cls-3" x="303.59" y="403.08" width="157.53" height="239.42" rx="50.16"/></svg>