<svg id="Layer_1" data-name="Layer 1" xmlns="http://www.w3.org/2000/svg" viewBox="0 0 1080 1080"><defs><style>.cls-1{fill:#6fbad1;}.cls-2{fill:#1e4759;}.cls-3{fill:#276d82;}</style></defs><path class="cls-1" d="M1077.24,566a26,26,0,0,1-26-26A91.38,91.38,0,0,0,960,448.72a26,26,0,1,1,0-51.93c79,0,143.2,64.24,143.2,143.2A26,26,0,0,1,1077.24,566Z" transform="translate(-420)"/><path class="cls-2" d="M1457.51,329.76A541.28,541.28,0,1,0,1500,540,537.65,537.65,0,0,0,1457.51,329.76ZM1248.15,869.6A436.95,436.95,0,0,1,960,977.8c-241.78,0-437.8-196-437.8-437.8s196-437.8,437.8-437.8,437.8,196,437.8,437.8C1397.8,671.42,1339.88,789.34,1248.15,869.6Z" transform="translate(-420)"/><path class="cls-3" d="M1151,730.9a268.75,268.75,0,0,0,75.1-144c25.86-146.74-72.46-287.19-219.19-313s-287.15,72.46-313,219.19,72.46,287.15,219.19,313.05a268.79,268.79,0,0,0,161-21.34l97.16,138.74a436.33,436.33,0,0,0,76.91-53.92Zm-225.91,7C816,718.67,742.84,614.22,762.07,505.11s123.7-182.27,232.82-163,182.27,123.71,163,232.82S1034.23,757.16,925.11,737.93Z" transform="translate(-420)"/></svg>