<svg id="Layer_1" data-name="Layer 1" xmlns="http://www.w3.org/2000/svg" viewBox="0 0 1080 1080"><defs><style>.cls-1{fill:#1e4759;}.cls-2{fill:#276d82;}</style></defs><path class="cls-1" d="M960,102.21c241.79,0,437.79,196,437.79,437.79S1201.79,977.79,960,977.79,522.21,781.79,522.21,540,718.21,102.21,960,102.21ZM960,0A540.11,540.11,0,0,0,749.78,1037.52a540.11,540.11,0,0,0,420.44-995A536.61,536.61,0,0,0,960,0Z" transform="translate(-420)"/><path class="cls-2" d="M1179.89,365.39H808.28l-13.09-71.9,0-.14c-.08-.42-.16-.83-.26-1.24,0-.08,0-.15,0-.23-.1-.41-.21-.82-.32-1.23,0-.08,0-.17-.08-.25-.11-.38-.23-.76-.35-1.13l-.12-.35q-.16-.48-.36-1c-.06-.16-.12-.32-.19-.49s-.22-.51-.34-.77-.18-.43-.28-.63-.19-.4-.29-.59-.26-.52-.4-.77-.15-.28-.23-.42c-.16-.3-.33-.6-.51-.89l-.17-.28c-.2-.33-.41-.65-.62-1l-.13-.18c-.23-.34-.47-.68-.72-1a1.13,1.13,0,0,0-.1-.13c-.25-.34-.52-.68-.79-1a.69.69,0,0,0-.11-.13c-.26-.33-.54-.64-.82-.95a1.29,1.29,0,0,0-.16-.17c-.26-.29-.53-.58-.81-.86l-.24-.24c-.26-.25-.51-.49-.78-.73l-.36-.33-.69-.6-.51-.4-.59-.47-.65-.47-.49-.35-.78-.51-.41-.26-.87-.52-.36-.2c-.3-.17-.61-.33-.92-.49l-.36-.18c-.3-.15-.61-.3-.93-.44l-.39-.18-.88-.36-.49-.19-.79-.28-.63-.22-.67-.2-.79-.22-.52-.13-1-.23-.38-.07c-.38-.08-.76-.14-1.14-.2l-.25,0c-.42-.06-.85-.12-1.29-.16l-.15,0c-.45,0-.91-.08-1.37-.1h-.14c-.45,0-.91,0-1.36,0H677.2a30,30,0,0,0,0,60h63.49l64.16,352.24a76.12,76.12,0,1,0,104.39,53.77h144.14a76.1,76.1,0,1,0,75.91-59.92c-.51,0-1,0-1.55,0H864.66l-5.33-29.25h291.95a62.89,62.89,0,0,0,61.84-51.44l28.61-154.47A62.89,62.89,0,0,0,1179.89,365.39Zm-345,401.76A16.15,16.15,0,1,1,851,751,16.16,16.16,0,0,1,834.88,767.15Zm292.86,0A16.15,16.15,0,1,1,1143.89,751,16.17,16.17,0,0,1,1127.74,767.15Zm55-338.34-28.61,154.47a2.94,2.94,0,0,1-2.89,2.4H850.8L821.11,425.34h358.78a2.94,2.94,0,0,1,2.89,3.47Z" transform="translate(-420)"/></svg>