<svg id="Layer_1" data-name="Layer 1" xmlns="http://www.w3.org/2000/svg" viewBox="0 0 1080 1080"><defs><style>.cls-1{fill:#276d82;}.cls-2{fill:#1e4759;}</style></defs><path class="cls-1" d="M469.53,565.51V514.6c.64-3.15,1.66-6.27,1.87-9.45,4.33-65.52,20.82-127.93,51.64-185.82C601.39,172.18,723,84,888.07,56.53c15.38-2.56,30.95-4,46.43-6h51c3.17.64,6.3,1.66,9.5,1.87,63.94,4.23,125,19.93,181.81,49.39,150.27,77.92,240.11,200.3,267.82,367.44,2.49,15,3.92,30.22,5.84,45.34v50.91c-.64,3.15-1.44,6.28-1.9,9.47-3.56,24.47-5.39,49.32-10.81,73.38C1367.82,959,1020.35,1121.7,736.82,974.74,589.2,898.22,502.45,775.14,475.38,610.9,472.9,595.86,471.45,580.64,469.53,565.51Zm710.1,241.07a51.73,51.73,0,0,0,2.37-4.82c22.14-73.58,44.45-147.12,66.32-220.78,17.25-58.08,11.88-114.12-17.33-167.44-10.17-18.58-21.38-36.59-32-55-10.17-17.64-17.67-36.19-20.25-56.65-4.58-36.37,19-73.57,53.7-83.46,7.35-2.1,15.12-2.76,22.78-4.1-86.69-85.07-240.48-140.93-397.4-102.91-112.5,27.26-200.5,89.95-267,187,23.87,0,44.74.6,65.55-.15,27.1-1,54.15-3.22,81.24-4.5,10.5-.49,17.26,5.68,18.18,15.15,1,10.71-3.88,17.64-14.45,19.64-5.11,1-10.36,1.32-15.56,1.81-11.8,1.12-23.61,2.16-36.45,3.33C743,492.9,796.05,650.39,849.94,810.35c1.8-4,2.52-5.22,3-6.59q46.35-138.45,92.5-277a18.34,18.34,0,0,0-.49-11.19c-21.13-58.51-42.57-116.9-63.73-175.4-2-5.49-5.13-7.42-10.72-7.81-13.35-.92-26.71-2.08-40-3.82-9.85-1.3-14.91-8.08-14.43-17.62.51-9.88,6.9-16.7,16.62-17.14,4.54-.21,9.12.57,13.69.69,48.31,1.24,96.63,3.14,145,3.37,25.77.12,51.53-2.89,77.32-4.06,10.63-.48,17.74,6.22,18.51,16.09.74,9.55-4.79,16.8-14.75,18.69-5.11,1-10.35,1.33-15.55,1.81-11.85,1.11-23.7,2.13-36.56,3.27C1073.49,491.5,1126.15,647.84,1179.63,806.58ZM969.1,581.09l-2.71.08C922.66,708,878.93,834.8,834.89,962.49c92.26,26.24,181.92,24,271.25-6.84C1060,829.63,1014.56,705.36,969.1,581.09ZM557.79,361.31c-46.92,96.05-58.8,241,5.32,371.73,41.12,83.85,153.65,195.64,204.08,200.81C697.45,743.18,627.82,552.8,557.79,361.31Zm624,559.48c68-40.33,120.45-92.66,159.26-158.56,39-66.29,58.94-138.15,60.37-214.92,1.36-73.25-29-192.47-54.26-214.41a368.57,368.57,0,0,1-2.12,96.83c-5.66,36.26-17.82,70.53-29.91,105-43.65,124.43-86.54,249.13-129.69,373.73C1184.29,911.72,1183.45,915.08,1181.77,920.79Z" transform="translate(-420)"/><path class="cls-2" d="M960,102.21c241.79,0,437.79,196,437.79,437.79S1201.79,977.79,960,977.79,522.21,781.79,522.21,540,718.21,102.21,960,102.21ZM960,0A540.11,540.11,0,0,0,749.78,1037.52a540.11,540.11,0,0,0,420.44-995A536.61,536.61,0,0,0,960,0Z" transform="translate(-420)"/></svg>