<svg xmlns="http://www.w3.org/2000/svg" width="39.077" height="39.077" viewBox="0 0 39.077 39.077">
  <path id="instagram" d="M26.051,19.539a6.515,6.515,0,0,0-6.513-6.513,6.515,6.515,0,0,0-6.513,6.513,6.515,6.515,0,0,0,6.513,6.513,6.515,6.515,0,0,0,6.513-6.513Zm3.51,0A9.988,9.988,0,0,1,19.538,29.562,9.988,9.988,0,0,1,9.515,19.539,9.988,9.988,0,0,1,19.538,9.515,9.988,9.988,0,0,1,29.562,19.539Zm2.747-10.43a2.34,2.34,0,1,1-3.993-1.653,2.34,2.34,0,0,1,3.993,1.653ZM19.538,3.51,17.592,3.5q-1.768-.013-2.684,0t-2.455.076a20.063,20.063,0,0,0-2.62.254A10.11,10.11,0,0,0,8.014,4.3,6.654,6.654,0,0,0,4.3,8.014a10.209,10.209,0,0,0-.471,1.819,20.063,20.063,0,0,0-.254,2.62q-.063,1.539-.076,2.455t0,2.684q.013,1.768.013,1.946T3.5,21.486q-.013,1.768,0,2.684t.076,2.455a20.063,20.063,0,0,0,.254,2.62A10.149,10.149,0,0,0,4.3,31.063a6.654,6.654,0,0,0,3.714,3.714,10.209,10.209,0,0,0,1.819.471,20.064,20.064,0,0,0,2.62.254q1.539.063,2.455.076t2.684,0l1.946-.013,1.946.013q1.768.013,2.684,0t2.455-.076a20.061,20.061,0,0,0,2.62-.254,10.21,10.21,0,0,0,1.819-.471,6.654,6.654,0,0,0,3.714-3.714,10.21,10.21,0,0,0,.471-1.819,20.064,20.064,0,0,0,.254-2.62q.063-1.539.076-2.455t0-2.684q-.013-1.768-.013-1.946t.013-1.946q.013-1.768,0-2.684T35.5,12.452a20.062,20.062,0,0,0-.254-2.62,10.014,10.014,0,0,0-.473-1.817A6.654,6.654,0,0,0,31.063,4.3a10.209,10.209,0,0,0-1.819-.471,20.063,20.063,0,0,0-2.62-.254q-1.539-.063-2.455-.076t-2.684,0l-1.946.013ZM39.077,19.539q0,5.826-.127,8.065Q38.7,32.9,35.8,35.8T27.6,38.95q-2.239.127-8.065.127t-8.065-.127Q6.182,38.7,3.281,35.8T.127,27.6Q0,25.364,0,19.539t.127-8.065Q.381,6.182,3.281,3.281T11.473.127Q13.713,0,19.538,0T27.6.127Q32.9.381,35.8,3.281t3.154,8.192Q39.077,13.713,39.077,19.539Z" fill="#fff"/>
</svg>
