<svg id="Layer_1" data-name="Layer 1" xmlns="http://www.w3.org/2000/svg" xmlns:xlink="http://www.w3.org/1999/xlink" viewBox="0 0 713.53 672.05"><defs><style>.cls-1{fill:#01c0d7;}.cls-2{fill:url(#linear-gradient);}.cls-3{fill:url(#linear-gradient-2);}.cls-4{fill:url(#linear-gradient-3);}.cls-5{fill:url(#linear-gradient-4);}.cls-6{fill:#8140bf;}.cls-7{fill:#f19d75;}.cls-8{fill:url(#linear-gradient-5);}.cls-9{fill:url(#linear-gradient-6);}.cls-10{fill:url(#linear-gradient-7);}.cls-11{fill:url(#linear-gradient-8);}.cls-12{fill:url(#linear-gradient-9);}.cls-13{fill:url(#linear-gradient-10);}.cls-14{fill:gray;}.cls-15{fill:url(#linear-gradient-11);}.cls-16{fill:url(#linear-gradient-12);}.cls-17{fill:url(#linear-gradient-13);}.cls-18{fill:url(#linear-gradient-14);}.cls-19{fill:#d2d2d2;}.cls-20{fill:#fff;}.cls-21{fill:url(#linear-gradient-15);}.cls-22{fill:url(#linear-gradient-16);}.cls-23{fill:url(#linear-gradient-17);}.cls-24{fill:url(#linear-gradient-18);}.cls-25{fill:#276852;}.cls-26{fill:#3d2717;}.cls-27{fill:#51967c;}.cls-28{fill:url(#linear-gradient-19);}.cls-29{fill:url(#linear-gradient-20);}.cls-30{fill:url(#linear-gradient-21);}.cls-31{fill:url(#linear-gradient-22);}.cls-32{fill:url(#linear-gradient-23);}.cls-33{fill:url(#linear-gradient-24);}.cls-34{fill:#5b402e;}.cls-35{fill:url(#linear-gradient-25);}.cls-36{fill:url(#linear-gradient-26);}.cls-37{fill:url(#linear-gradient-27);}.cls-38{fill:#8c4f37;}.cls-39{fill:url(#linear-gradient-28);}.cls-40{fill:url(#linear-gradient-29);}.cls-41{fill:#28190e;}.cls-42{fill:url(#linear-gradient-30);}.cls-43{fill:url(#linear-gradient-31);}.cls-44{fill:url(#linear-gradient-32);}.cls-45{fill:url(#linear-gradient-33);}.cls-46{fill:url(#linear-gradient-34);}.cls-47{fill:#1b511b;}.cls-48{fill:url(#linear-gradient-35);}.cls-49{fill:url(#linear-gradient-36);}.cls-50{fill:url(#linear-gradient-37);}.cls-51{fill:url(#linear-gradient-38);}.cls-52{fill:url(#linear-gradient-39);}.cls-53{fill:url(#linear-gradient-40);}.cls-54{fill:url(#linear-gradient-41);}.cls-55{fill:url(#linear-gradient-42);}.cls-56{fill:url(#linear-gradient-43);}.cls-57{fill:url(#linear-gradient-44);}.cls-58{fill:url(#linear-gradient-45);}.cls-59{fill:#2b2b2b;}.cls-60{fill:url(#linear-gradient-46);}.cls-61{fill:#666;}.cls-62{fill:#428442;}.cls-63{fill:url(#linear-gradient-47);}.cls-64{fill:url(#linear-gradient-48);}.cls-65{fill:url(#linear-gradient-49);}.cls-66{fill:url(#linear-gradient-50);}.cls-67{fill:url(#linear-gradient-51);}.cls-68{fill:url(#linear-gradient-52);}.cls-69{fill:url(#linear-gradient-53);}.cls-70{fill:url(#linear-gradient-54);}</style><linearGradient id="linear-gradient" x1="530.03" y1="455.64" x2="528.96" y2="437.65" gradientUnits="userSpaceOnUse"><stop offset="0" stop-color="#f19d75"/><stop offset="0.59" stop-color="#df8863"/><stop offset="1" stop-color="#d77f5b"/></linearGradient><linearGradient id="linear-gradient-2" x1="522.13" y1="519.63" x2="499.55" y2="493.58" xlink:href="#linear-gradient"/><linearGradient id="linear-gradient-3" x1="373.3" y1="649.92" x2="583.53" y2="628.79" gradientUnits="userSpaceOnUse"><stop offset="0" stop-color="#8e8e8e"/><stop offset="1" stop-color="#cbcbcb"/></linearGradient><linearGradient id="linear-gradient-4" x1="606.38" y1="513.03" x2="514.52" y2="719.58" gradientUnits="userSpaceOnUse"><stop offset="0" stop-color="#c67eff"/><stop offset="0.22" stop-color="#c079fa"/><stop offset="0.49" stop-color="#b16beb"/><stop offset="0.8" stop-color="#9653d3"/><stop offset="1" stop-color="#8140bf"/></linearGradient><linearGradient id="linear-gradient-5" x1="511.16" y1="656.53" x2="562.47" y2="642.56" gradientUnits="userSpaceOnUse"><stop offset="0" stop-color="#f19d75"/><stop offset="0.53" stop-color="#f5aa89"/><stop offset="1" stop-color="#f8b397"/></linearGradient><linearGradient id="linear-gradient-6" x1="547.64" y1="656.68" x2="499.38" y2="681.83" xlink:href="#linear-gradient"/><linearGradient id="linear-gradient-7" x1="688.94" y1="331.09" x2="700.84" y2="331.09" gradientTransform="translate(-5.84 70.26) rotate(-3.26)" gradientUnits="userSpaceOnUse"><stop offset="0" stop-color="#3d2717"/><stop offset="0.43" stop-color="#402919"/><stop offset="0.71" stop-color="#493120"/><stop offset="0.96" stop-color="#583d2c"/><stop offset="1" stop-color="#5b402e"/></linearGradient><linearGradient id="linear-gradient-8" x1="508.26" y1="484.04" x2="568.4" y2="484.04" xlink:href="#linear-gradient"/><linearGradient id="linear-gradient-9" x1="638.77" y1="428.17" x2="688" y2="441.15" xlink:href="#linear-gradient-5"/><linearGradient id="linear-gradient-10" x1="511.01" y1="470.61" x2="419.14" y2="677.16" xlink:href="#linear-gradient-4"/><linearGradient id="linear-gradient-11" x1="520.78" y1="614.23" x2="759.75" y2="598.01" xlink:href="#linear-gradient-3"/><linearGradient id="linear-gradient-12" x1="725.14" y1="655.3" x2="736.6" y2="643.84" xlink:href="#linear-gradient-5"/><linearGradient id="linear-gradient-13" x1="483.73" y1="611.13" x2="713.52" y2="611.13" xlink:href="#linear-gradient-3"/><linearGradient id="linear-gradient-14" x1="782.19" y1="677.65" x2="694.35" y2="667.32" xlink:href="#linear-gradient"/><linearGradient id="linear-gradient-15" x1="734.39" y1="708.08" x2="768.23" y2="708.08" gradientTransform="translate(268.07 -562.63) rotate(29)" gradientUnits="userSpaceOnUse"><stop offset="0.09" stop-color="#f19d75"/><stop offset="0.57" stop-color="#f5aa89"/><stop offset="1" stop-color="#f8b397"/></linearGradient><linearGradient id="linear-gradient-16" x1="810.45" y1="701.62" x2="831.15" y2="701.62" gradientTransform="translate(268.07 -562.63) rotate(29)" gradientUnits="userSpaceOnUse"><stop offset="0.09" stop-color="#f19d75"/><stop offset="0.41" stop-color="#f3a27d"/><stop offset="0.89" stop-color="#f7af91"/><stop offset="1" stop-color="#f8b397"/></linearGradient><linearGradient id="linear-gradient-17" x1="910.63" y1="795.34" x2="949.34" y2="782.43" gradientTransform="translate(582.26 -839.65) rotate(49.03)" gradientUnits="userSpaceOnUse"><stop offset="0" stop-color="#d77f5b"/><stop offset="0.38" stop-color="#da835e"/><stop offset="0.72" stop-color="#e38d67"/><stop offset="1" stop-color="#f19d75"/></linearGradient><linearGradient id="linear-gradient-18" x1="650.5" y1="406.78" x2="677.29" y2="416.66" gradientTransform="matrix(1, 0, 0, 1, 0, 0)" xlink:href="#linear-gradient-17"/><linearGradient id="linear-gradient-19" x1="678.36" y1="313.87" x2="712.99" y2="313.87" gradientTransform="translate(-5.84 70.26) rotate(-3.26)" gradientUnits="userSpaceOnUse"><stop offset="0" stop-color="#3d2717"/><stop offset="0.37" stop-color="#442d1c"/><stop offset="0.92" stop-color="#583d2b"/><stop offset="1" stop-color="#5b402e"/></linearGradient><linearGradient id="linear-gradient-20" x1="661.53" y1="286.78" x2="721.35" y2="286.78" gradientTransform="translate(-5.84 70.26) rotate(-3.26)" gradientUnits="userSpaceOnUse"><stop offset="0" stop-color="#3d2717"/><stop offset="0.37" stop-color="#442d1c"/><stop offset="0.89" stop-color="#563c2a"/><stop offset="1" stop-color="#5b402e"/></linearGradient><linearGradient id="linear-gradient-21" x1="644.53" y1="276.66" x2="696.67" y2="239.81" gradientTransform="translate(-5.84 70.26) rotate(-3.26)" gradientUnits="userSpaceOnUse"><stop offset="0" stop-color="#3d2717"/><stop offset="1" stop-color="#5b402e"/></linearGradient><linearGradient id="linear-gradient-22" x1="630.37" y1="279.32" x2="619.68" y2="218.75" xlink:href="#linear-gradient-21"/><linearGradient id="linear-gradient-23" x1="585.74" y1="244.96" x2="604.93" y2="217.61" xlink:href="#linear-gradient-21"/><linearGradient id="linear-gradient-24" x1="545.28" y1="243.18" x2="554.03" y2="209.85" xlink:href="#linear-gradient-21"/><linearGradient id="linear-gradient-25" x1="-827.09" y1="395.64" x2="-849.28" y2="402.83" gradientTransform="matrix(-1, 0.02, 0.02, 1, -348.6, 3.87)" gradientUnits="userSpaceOnUse"><stop offset="0" stop-color="#f19d75"/><stop offset="0.28" stop-color="#e38d67"/><stop offset="0.62" stop-color="#da835e"/><stop offset="1" stop-color="#d77f5b"/></linearGradient><linearGradient id="linear-gradient-26" x1="500.34" y1="370.5" x2="468.76" y2="380.75" gradientTransform="matrix(1, 0, 0, 1, 0, 0)" xlink:href="#linear-gradient-25"/><linearGradient id="linear-gradient-27" x1="723.97" y1="662.13" x2="697.45" y2="652.85" xlink:href="#linear-gradient"/><linearGradient id="linear-gradient-28" x1="238.54" y1="334.8" x2="333.36" y2="334.8" gradientUnits="userSpaceOnUse"><stop offset="0" stop-color="#603123"/><stop offset="1" stop-color="#8c4f37"/></linearGradient><linearGradient id="linear-gradient-29" x1="174.77" y1="216.7" x2="214.24" y2="220.55" gradientUnits="userSpaceOnUse"><stop offset="0" stop-color="#603123"/><stop offset="0.32" stop-color="#643325"/><stop offset="0.6" stop-color="#6e3b2a"/><stop offset="0.87" stop-color="#804732"/><stop offset="1" stop-color="#8c4f37"/></linearGradient><linearGradient id="linear-gradient-30" x1="332.79" y1="260.73" x2="397.38" y2="149.3" gradientUnits="userSpaceOnUse"><stop offset="0" stop-color="#28190e"/><stop offset="1" stop-color="#352317"/></linearGradient><linearGradient id="linear-gradient-31" x1="-2515.67" y1="1065.44" x2="-2537.87" y2="1072.64" gradientTransform="translate(2959.3 1158.19) rotate(41.43)" gradientUnits="userSpaceOnUse"><stop offset="0" stop-color="#8c4f37"/><stop offset="0.14" stop-color="#7f4631"/><stop offset="0.4" stop-color="#6e3a29"/><stop offset="0.67" stop-color="#633324"/><stop offset="1" stop-color="#603123"/></linearGradient><linearGradient id="linear-gradient-32" x1="2199.93" y1="999.74" x2="2168.34" y2="1009.98" gradientTransform="matrix(-0.76, -0.64, -0.64, 0.76, 2695.39, 930.4)" gradientUnits="userSpaceOnUse"><stop offset="0" stop-color="#a86756"/><stop offset="0.3" stop-color="#995a45"/><stop offset="0.63" stop-color="#8f523b"/><stop offset="1" stop-color="#8c4f37"/></linearGradient><linearGradient id="linear-gradient-33" x1="329.99" y1="537.76" x2="377.23" y2="537.76" gradientTransform="translate(110.46 -398.49) rotate(15.79)" xlink:href="#linear-gradient-28"/><linearGradient id="linear-gradient-34" x1="242.27" y1="533.29" x2="272.14" y2="533.12" gradientTransform="translate(110.46 -398.49) rotate(15.79)" gradientUnits="userSpaceOnUse"><stop offset="0" stop-color="#603123"/><stop offset="0.17" stop-color="#683627"/><stop offset="1" stop-color="#8c4f37"/></linearGradient><linearGradient id="linear-gradient-35" x1="2535.42" y1="205.69" x2="2569.25" y2="205.69" gradientTransform="matrix(-1, -0.05, -0.05, 1, 2838.18, 167.36)" gradientUnits="userSpaceOnUse"><stop offset="0" stop-color="#a86756"/><stop offset="1" stop-color="#8c4f37"/></linearGradient><linearGradient id="linear-gradient-36" x1="2599.53" y1="324.93" x2="2620.23" y2="324.93" gradientTransform="matrix(-0.99, -0.16, -0.16, 0.99, 2833.73, 323.45)" xlink:href="#linear-gradient-35"/><linearGradient id="linear-gradient-37" x1="327.74" y1="354.6" x2="308.24" y2="337.57" gradientTransform="matrix(1, 0, 0, 1, 0, 0)" xlink:href="#linear-gradient-35"/><linearGradient id="linear-gradient-38" x1="311.13" y1="203.88" x2="325.35" y2="196.03" xlink:href="#linear-gradient-30"/><linearGradient id="linear-gradient-39" x1="115.44" y1="489.36" x2="182.96" y2="439.59" gradientUnits="userSpaceOnUse"><stop offset="0" stop-color="#8c4f37"/><stop offset="1" stop-color="#603123"/></linearGradient><linearGradient id="linear-gradient-40" x1="216.07" y1="168.49" x2="229.7" y2="164.96" xlink:href="#linear-gradient-30"/><linearGradient id="linear-gradient-41" x1="172.31" y1="499.71" x2="190.86" y2="398.12" gradientUnits="userSpaceOnUse"><stop offset="0" stop-color="gray"/><stop offset="0.14" stop-color="#a5a5a5"/><stop offset="0.3" stop-color="#c5c5c5"/><stop offset="0.46" stop-color="#dfdfdf"/><stop offset="0.63" stop-color="#f1f1f1"/><stop offset="0.8" stop-color="#fbfbfb"/><stop offset="1" stop-color="#fff"/></linearGradient><linearGradient id="linear-gradient-42" x1="222.57" y1="625.02" x2="266" y2="408.69" xlink:href="#linear-gradient-41"/><linearGradient id="linear-gradient-43" x1="207.91" y1="394.58" x2="187.9" y2="464.94" gradientUnits="userSpaceOnUse"><stop offset="0" stop-color="#c44198"/><stop offset="0.03" stop-color="#c7449b"/><stop offset="0.25" stop-color="#e05eb2"/><stop offset="0.48" stop-color="#f170c2"/><stop offset="0.72" stop-color="#fc7acc"/><stop offset="1" stop-color="#ff7ecf"/></linearGradient><linearGradient id="linear-gradient-44" x1="311" y1="524.92" x2="329.46" y2="423.79" xlink:href="#linear-gradient-41"/><linearGradient id="linear-gradient-45" x1="267.9" y1="340.89" x2="370.38" y2="349.05" xlink:href="#linear-gradient-3"/><linearGradient id="linear-gradient-46" x1="222.98" y1="376.74" x2="363.25" y2="326.86" xlink:href="#linear-gradient-3"/><linearGradient id="linear-gradient-47" x1="354.19" y1="339.35" x2="298.02" y2="361.41" gradientUnits="userSpaceOnUse"><stop offset="0" stop-color="#a86756"/><stop offset="1" stop-color="#8c4f37"/></linearGradient><linearGradient id="linear-gradient-48" x1="293.98" y1="434.11" x2="275" y2="462.85" xlink:href="#linear-gradient-47"/><linearGradient id="linear-gradient-49" x1="276.03" y1="535.8" x2="276.17" y2="535.04" xlink:href="#linear-gradient-41"/><linearGradient id="linear-gradient-50" x1="346.79" y1="501.65" x2="298.14" y2="497.91" xlink:href="#linear-gradient-28"/><linearGradient id="linear-gradient-51" x1="146.02" y1="275.25" x2="157.9" y2="279.93" xlink:href="#linear-gradient-28"/><linearGradient id="linear-gradient-52" x1="88.19" y1="289.17" x2="114.49" y2="294.71" xlink:href="#linear-gradient-28"/><linearGradient id="linear-gradient-53" x1="175.73" y1="319.61" x2="128.85" y2="316.01" xlink:href="#linear-gradient-28"/><linearGradient id="linear-gradient-54" x1="163" y1="381.75" x2="143.35" y2="377.96" xlink:href="#linear-gradient-47"/></defs><path class="cls-1" d="M760.3,350.58c1.47,66.93-30.15,121.13-78.77,167.71-47.07,45.1-102.84,78.33-159,109.21-36.77,20.22-75.84,39.69-119.06,46.58a145.81,145.81,0,0,1-75.82-8.22c-15.3-5.85-27.79-19.41-41.06-30.11-33-26.61-63.52-56.31-98.82-80.11C169.32,543.21,147.5,536.2,131,520.77c-19.08-17.84-41.65-31.7-58.71-51.81-20.64-24.33-22.53-44.66-7.13-72,12.51-22.19,29.24-41.13,46.76-59.21,45.47-47,86.35-97.58,124.33-150.71C273.68,134.7,315.72,86.71,374.5,57.48c20.23-10.06,43.55-11.91,66-12.9,144-6.35,264.49,90,304.49,212.76C754.6,286.75,760.88,316.74,760.3,350.58Z" transform="translate(-54.99 -44.28)"/><path class="cls-2" d="M571.88,499.37c-5.3,6.18-9.93,26.93-9.93,26.93s-3.69,6.51-24.5,19.21c-16,9.78-38.5-16-43.12-32.74-1.61-5.85-1.06-10.59,2.72-12.3,5.34-2.41,9.42-9.81,12.47-18.21v0a14.76,14.76,0,0,0,.25-2c.34-5.16-.75-14.7-2.42-25.42-2.92-18.77-7.62-41.16-9.5-50l-.85-3.85,15.65-.91,3.17,7.41a.15.15,0,0,0,0,.06l23.74,55.58s-.87.85-2.32,2.23C554.2,478.32,575.09,495.62,571.88,499.37Z" transform="translate(-54.99 -44.28)"/><path class="cls-3" d="M494.33,512.77c-1.61-5.85-1.06-10.59,2.72-12.3,5.34-2.41,9.42-9.81,12.47-18.21v0a14.76,14.76,0,0,0,.25-2C512.28,499.52,494.33,512.77,494.33,512.77Z" transform="translate(-54.99 -44.28)"/><polygon class="cls-4" points="534.52 614.62 526.72 611.56 394.54 635.93 467.32 661.96 526.04 657.5 534.52 614.62"/><path class="cls-5" d="M694.19,637.24s-25.47,17.38-26.05,26.64-78.61-17.58-78.61-17.58l-3.25-6.42-12.95-25.59-1.07,1.54-21.59,31L391.38,676l57.9-131.43,47.77-44.14s24.72,60.21,64.9,25.83c0,0,38.44-4.71,48.87,23.59s26.64,68.25,30.11,68.83S694.19,637.24,694.19,637.24Z" transform="translate(-54.99 -44.28)"/><polygon class="cls-6" points="537.42 594.31 531.28 595.6 518.34 570.01 517.26 571.55 524 559.14 537.42 594.31"/><path class="cls-7" d="M567.41,664.43c-2.07,8.85-7.76,18.22-18.37,20.74a21.39,21.39,0,0,1-3,.52c-19.53,2.11-53.57-9.5-56.47-12.67-2.12-2.31-10.06-4.92-14.25-6.36a11.93,11.93,0,0,1-2.64-1c-.18-.37-9.07-15.89,6.71-23.24,7.1-3.31,19.19-5,39.28-2.84,0,0,45.57,1.8,48.74,11C568.58,653.9,568.66,659.06,567.41,664.43Z" transform="translate(-54.99 -44.28)"/><path class="cls-8" d="M567.41,664.43c-9.47-15.57-65.48-20.62-88-22,7.1-3.31,19.19-5,39.28-2.84,0,0,45.57,1.8,48.74,11C568.58,653.9,568.66,659.06,567.41,664.43Z" transform="translate(-54.99 -44.28)"/><path class="cls-9" d="M549,685.17a21.39,21.39,0,0,1-3,.52c-19.53,2.11-53.57-9.5-56.47-12.67-2.12-2.31-10.06-4.92-14.25-6.36a14,14,0,0,1,2.91-3s18,7.5,21.27,9.6C502.29,675,537.62,682.71,549,685.17Z" transform="translate(-54.99 -44.28)"/><path class="cls-10" d="M702.84,367.5s9.43.48,9.87-5.91-11.35-7.69-12-4.76S702.84,367.5,702.84,367.5Z" transform="translate(-54.99 -44.28)"/><path class="cls-11" d="M563.81,519l4.59-13.89s-51.79-52-49.69-54.71-10.45-1.69-10.45-1.69S525.84,527.14,563.81,519Z" transform="translate(-54.99 -44.28)"/><path class="cls-7" d="M698.78,406.74c-.22.67-.45,1.35-.7,2s-.56,1.58-.86,2.38c-.18.47-.35.95-.53,1.43,0,0,0,.05,0,.08s.41.08-2.1,4.15c-.11.17-.22.36-.34.54s-.34.52-.52.8c-2.69,4.17-7.75,11.5-17.25,24.37,0,0-7.5,25-11.54,30.81-1.59,2.3-6.67,8.24-12.63,14.7-9.07,9.86-19.68,19-23.52,20.21-1.48.47-4.14,1.46-7.41,2.66-10.76,4-28.34,10.39-34,9.82-1-.11-2.29-.29-3.91-.62-10.73-2.18-34.35-10.25-52.88-35.73-21.32-29.33-25.92-37.45-25.12-57.69.36-9.29,1.05-20.89,2.56-34.56,1.54-13.91,2.58-25.59,2.58-25.59s23.14-92.51,67.3-93.89c0,0,79.51,7.92,112.88,53.63a77.54,77.54,0,0,1,6.59,10.79C706.32,355,708.57,377.82,698.78,406.74Z" transform="translate(-54.99 -44.28)"/><path class="cls-12" d="M698.78,406.74c-.22.67-.45,1.35-.7,2s-.56,1.58-.86,2.38c-.18.47-.35.95-.53,1.43,0,0,0,.05,0,.08s.41.08-2.1,4.15c-.11.17-.22.36-.34.54s-.34.52-.52.8c-2.69,4.17-7.75,11.5-17.25,24.37,0,0-7.5,25-11.54,30.81-1.59,2.3-6.67,8.24-12.63,14.7-9.07,9.86-19.68,19-23.52,20.21-1.48.47-4.14,1.46-7.41,2.66-10.76,4-28.34,10.39-34,9.82-1-.11-2.29-.29-3.91-.62,6.27-1.65,15.89-6.11,30-11.63,15.86-6.22,30.78-24.77,33.93-28.87a11.55,11.55,0,0,1,1.45-1.52c18.13-16.28,13.87-47.18,28.57-56.55,14.94-9.51,6.82-81.26,6.82-81.26a49.48,49.48,0,0,1,13.16-3.21C706.32,355,708.57,377.82,698.78,406.74Z" transform="translate(-54.99 -44.28)"/><path class="cls-13" d="M518.7,639.55c-10.77-2.27-32.88,22.11-40.83,28.92-4.12,3.53-35.92-1-65-9.35-4.83-1.38-9.59-2.87-14.11-4.45-20.76-7.15-37-16-35.45-24.77,4-22.11,25.53-80.53,57.28-126.46s76.45-3,76.45-3l-11.8,20.39-21.12,34.08h0L437,598.7l-5.63,9.09a25.67,25.67,0,0,1,6.43.64c13.66,2.69,39.25,13,58,21C508.94,635.05,518.7,639.55,518.7,639.55Z" transform="translate(-54.99 -44.28)"/><polygon class="cls-14" points="486.75 671.89 484.69 672.05 483.04 671.68 395.77 652.15 394.54 635.93 480.38 652.11 485.32 653.04 486.75 671.89"/><polygon class="cls-15" points="713.52 550.26 618.12 661.33 486.75 671.89 485.32 653.04 480.38 652.11 480.36 651.88 559.87 556.23 705.45 546.65 713.52 550.26"/><path class="cls-16" d="M729.14,633.52s1.57,37.42-12.33,47.65S684,695.6,682.44,693,729.14,633.52,729.14,633.52Z" transform="translate(-54.99 -44.28)"/><polyline class="cls-17" points="485.18 672.01 483.73 652.97 562.07 561.76 713.52 550.26 617.71 661.81"/><path class="cls-18" d="M719.93,677.14c-5.36,7-15.47,13.45-34,16.53,0,0-34-9.08-5.89-36.37a71.23,71.23,0,0,1,12.34-9.83c20.37-12.52,31.73-.29,31.73,1.7C724.08,650.67,729.28,664.85,719.93,677.14Z" transform="translate(-54.99 -44.28)"/><path class="cls-19" d="M548.05,386.27c.94.79,1.89,1.56,2.83,2.31l1.55-.53q.9-.33,1.8-.6,1.53-.48,3-.87l1.06-.28c1.53-.39,3-.69,4.44-.94.48-.09.94-.16,1.41-.22l1-.15,1-.11a1,1,0,0,1,.17,0,39.31,39.31,0,0,1,4.63-.22c.3,0,.61,0,.9,0a33.24,33.24,0,0,1,6.47.77l.2,0a28.52,28.52,0,0,1,3.47,1c.28.09.54.2.81.3s.55.22.83.35.49.22.75.33c.59.27,1.15.57,1.71.88s1.24.72,1.83,1.1c.31.2.59.4.87.61s.85.62,1.25,1,.77.64,1.14,1l.94.88c.24.23.47.48.7.73s.51.52.74.8.46.52.67.79c.1.11.18.21.27.33s.4.49.59.74.46.62.68.94.44.61.64.92l.2.31c.22.33.42.66.61,1s.44.73.64,1.09l.09.17q.32.54.57,1.08a48,48,0,0,1,3.64,9.51c.08.33.16.63.23.95.24.93.43,1.81.6,2.64,2.78.71,4.36,1,4.36,1s0-.25,0-.39a53.65,53.65,0,0,0-1.41-8l-.24-1a48.65,48.65,0,0,0-3.63-9.52q-.27-.54-.57-1.08a1,1,0,0,0-.1-.17c-.2-.36-.4-.72-.63-1.09s-.4-.66-.62-1c-.06-.11-.13-.2-.2-.31-.2-.31-.41-.63-.63-.92l-.69-.94c-.18-.25-.38-.5-.59-.74s-.17-.22-.27-.33a8.13,8.13,0,0,0-.67-.78c-.23-.28-.48-.55-.74-.81s-.46-.5-.7-.73l-.93-.88-1.15-1c-.4-.33-.82-.65-1.24-.95s-.57-.41-.87-.61c-.59-.38-1.21-.75-1.84-1.1s-1.12-.61-1.71-.88c-.25-.11-.5-.24-.75-.33s-.55-.24-.82-.35l-.82-.3a27.52,27.52,0,0,0-3.47-1l-.2,0a33.92,33.92,0,0,0-6.46-.77c-.3,0-.6,0-.9,0a39.22,39.22,0,0,0-4.63.22l-.18,0-1,.11-1,.15c-.46.06-.93.14-1.41.22-1.43.25-2.9.55-4.44.94l-1.06.28c-1,.26-2,.55-3,.87-.6.18-1.21.38-1.81.6C553.42,384.05,550.8,385.07,548.05,386.27Z" transform="translate(-54.99 -44.28)"/><path class="cls-20" d="M603,414.82c-.3-.08-.62-.14-.95-.24-.64-.16-1.32-.34-2.05-.56a133.24,133.24,0,0,1-20.19-7.57l-.64-.3c-2.9-1.34-5.92-2.88-9-4.63-2.88-1.6-5.83-3.4-8.83-5.37-3.46-2.27-7-4.77-10.47-7.58l1.55-.52,1.8-.61c1-.31,2-.59,3-.87.36-.08.7-.19,1.06-.28,1.53-.38,3-.68,4.44-.93.47-.08.94-.17,1.41-.22l1-.14,1-.13.19,0a43.84,43.84,0,0,1,4.62-.22l.9,0a34.13,34.13,0,0,1,6.47.77l.2,0a27.85,27.85,0,0,1,3.46,1h0l.81.3c.27.11.55.22.83.35s.5.22.74.33c.6.28,1.16.57,1.72.87s1.24.73,1.83,1.11c.31.2.59.4.87.6s.85.63,1.25,1l1.15,1,.92.89c.24.23.49.48.71.73a10.78,10.78,0,0,1,.73.8c.22.23.43.48.62.72a.19.19,0,0,1,.06.07c.09.11.18.21.27.33a3.36,3.36,0,0,0,.24.29,5.37,5.37,0,0,1,.35.45c.22.31.46.62.68.94s.44.61.64.91c.06.11.13.21.2.32a11.48,11.48,0,0,1,.61,1c.24.37.43.73.64,1.1,0,0,.06.11.1.16.19.36.39.72.56,1.08a43.84,43.84,0,0,1,2.86,6.93c.26.74.46,1.47.65,2.17a3.38,3.38,0,0,1,.13.42c.08.32.16.63.23.94.14.51.25,1,.36,1.49S603,414.45,603,414.82Z" transform="translate(-54.99 -44.28)"/><path class="cls-19" d="M677,432.23c0,.2,0,.4-.06.61s-.08.62-.15,1-.13.62-.23.95a.14.14,0,0,0,0,.07c-.09.3-.2.62-.32.94s-.27.68-.42,1a7.21,7.21,0,0,1-.33.69,4,4,0,0,1-.17.36l-.18.35h0c-.25.49-.54,1-.84,1.48s-.65,1-1,1.52a7.62,7.62,0,0,0,.33-.91,2.12,2.12,0,0,0,.11-.29h0c.09-.32.19-.62.26-.93a5.21,5.21,0,0,0,.17-.84,2.4,2.4,0,0,0,0-.24,6.47,6.47,0,0,0,.09-.85,7.87,7.87,0,0,0-3-6.57c-.18-.16-.38-.32-.59-.48a12.25,12.25,0,0,0-1.12-.78l-.05,0a6.14,6.14,0,0,0-.89-.53l-.08,0a8.82,8.82,0,0,0-.92-.47l-.11-.07h0l-.35-.17c-.71-.33-1.47-.63-2.28-.93-.33-.11-.64-.2-1-.29a10.25,10.25,0,0,0-1.31-.29h0a9.72,9.72,0,0,0-1.32-.17c-.39,0-.78,0-1.18,0a8.77,8.77,0,0,0-1.15.05c-.39,0-.78.08-1.17.15a11.07,11.07,0,0,0-1.12.22c-.3.07-.58.12-.88.22l-.56.17-.8.26-.59.22a3.34,3.34,0,0,0-.38.15h0c-.22.08-.43.17-.64.27s-.49.21-.73.33c-.49.23-1,.48-1.44.73s-.92.51-1.37.8-.89.55-1.33.84-.84.59-1.23.88c-.72.52-1.4,1.07-2,1.59-.25.21-.5.41-.73.62s-.48.41-.71.62l-.32.3a2.59,2.59,0,0,1-1-1.11,1,1,0,0,0,.12-.15h0c.41-.48,1.33-1.49,2.64-2.75l.49-.46c.23-.23.48-.46.76-.7.11-.1.22-.19.33-.31l.72-.61c.13-.1.25-.22.39-.32.3-.26.63-.53,1-.78.52-.42,1.08-.84,1.66-1.24l.62-.45.29-.19c.34-.22.68-.44,1-.65s.9-.54,1.36-.8h0c.46-.25.94-.5,1.43-.73l1.33-.59c.25-.1.52-.21.79-.3l.41-.15.55-.17a2.24,2.24,0,0,1,.34-.11,1.52,1.52,0,0,1,.28-.09l.62-.16c.36-.09.74-.17,1.13-.23l.25-.05c.3-.05.59-.08.88-.11l.59-.06.55,0h.85s0,0,0,0h.6a5.87,5.87,0,0,1,.62.07h0l.21,0h0l.44.06h0l.2,0h.06l.38.08.12,0a3.27,3.27,0,0,1,.54.13c.27.07.55.16.82.25l.15.06c.81.29,1.56.59,2.28.91a18.17,18.17,0,0,1,3.54,2.08c.22.17.41.32.59.48l.38.35.27.26a8.76,8.76,0,0,1,1.14,1.42c.07.12.14.25.22.37a7,7,0,0,1,.56,1.25c0,.11.07.23.11.33s0,0,0,0c.06.2.1.41.14.61a.38.38,0,0,0,0,.1,5.56,5.56,0,0,1,.08.7A7,7,0,0,1,677,432.23Z" transform="translate(-54.99 -44.28)"/><path class="cls-20" d="M674.27,437.12c0,.27,0,.55-.09.85a.85.85,0,0,1,0,.23,5.15,5.15,0,0,1-.18.85c-.06.31-.16.61-.25.93h0c0,.1-.07.19-.11.3a7,7,0,0,1-.33.9c-.2.29-.42.58-.63.89s-.34.46-.51.69-.41.53-.62.81l-.13.16c-.11.14-.22.27-.35.41s0,.05-.07.08-.18.2-.27.28a1.5,1.5,0,0,0-.16.14s0,0,0,0a7.61,7.61,0,0,1-1.84,1.28c-.24-.1-.5-.19-.8-.29-1.07-.38-2.42-.88-4-1.46-1.11-.4-2.32-.87-3.57-1.36l-2.7-1.06c-.19-.08-.39-.14-.57-.22-1.3-.53-2.6-1.06-3.89-1.61-1.63-.69-3.21-1.38-4.63-2.07a32.79,32.79,0,0,1-5.65-3.15,3.11,3.11,0,0,1,.32-.31c.24-.2.46-.42.7-.62s.49-.4.74-.63c.64-.5,1.32-1.06,2-1.58l1.24-.88,1.32-.84c.45-.29.92-.54,1.37-.8s1-.5,1.44-.73l.73-.33a3.9,3.9,0,0,1,.64-.26,2,2,0,0,1,.37-.16c.2-.09.4-.16.6-.23l.8-.26.57-.18c.29-.09.58-.14.87-.21a10.26,10.26,0,0,1,1.13-.22c.38-.07.77-.11,1.15-.15a11.33,11.33,0,0,1,1.17-.05l1.18,0a10,10,0,0,1,1.31.18h0a8.27,8.27,0,0,1,1.31.29c.33.09.65.18,1,.29.58.21,1.13.43,1.66.66.21.08.42.18.62.27l.35.17h0l.12.07a10.07,10.07,0,0,1,.93.46l.08,0,.89.53.05,0c.4.25.77.52,1.11.78s.41.32.59.48A7.85,7.85,0,0,1,674.27,437.12Z" transform="translate(-54.99 -44.28)"/><path d="M603.66,392.38a8.45,8.45,0,0,0-1.61-.25h0a8,8,0,0,0-2.6.3l-.08-.11c-.22-.33-.45-.63-.68-.93a8.45,8.45,0,0,0-.59-.75c-.09-.12-.17-.22-.27-.33-.2-.27-.42-.52-.66-.79s-.5-.54-.75-.8-.45-.5-.69-.73-.63-.6-.95-.88-.54-.49-.84-.73h0l-.28-.24c-.4-.33-.81-.65-1.25-1C587,381.33,579.71,379,569.88,380a56.38,56.38,0,0,0-8.08,1.46c-.35.07-.7.17-1.06.28-1,.26-2,.54-3,.85l-1.81.61c-2.52.83-5.15,1.87-7.89,3.06l.09,0c1.6-1,15.22-8.7,29-9.05h.18c12.23-.67,19.53,4.45,23.87,11.19l0,0A26.1,26.1,0,0,1,603.66,392.38Z" transform="translate(-54.99 -44.28)"/><path d="M607.45,415.94c0,.14,0,.23,0,.29,0-.11,0-.24,0-.44a2.42,2.42,0,0,1,0-.39,57.83,57.83,0,0,0-1.4-8,6.89,6.89,0,0,0,1.43-1.14A52.22,52.22,0,0,1,607.45,415.94Z" transform="translate(-54.99 -44.28)"/><path class="cls-21" d="M599.79,423.62s-30-3-35.64-5.48C564.15,418.14,591.14,434.46,599.79,423.62Z" transform="translate(-54.99 -44.28)"/><path class="cls-22" d="M637.47,442.74s8.71,12.52,17,12C654.48,454.74,642,441.34,637.47,442.74Z" transform="translate(-54.99 -44.28)"/><path class="cls-23" d="M615,398.44s-1.2-16.34-13.38-23.31-21.33-7.7-21.33-7.7S614.4,386.27,615,398.44Z" transform="translate(-54.99 -44.28)"/><path class="cls-24" d="M664,410.31s14.45-4.7,17.45,12.43C681.44,422.74,669.92,411.59,664,410.31Z" transform="translate(-54.99 -44.28)"/><path d="M676.94,432.84c0-.21,0-.41.06-.61a7,7,0,0,0,0-1.13,5.56,5.56,0,0,0-.08-.7.38.38,0,0,1,0-.1,6,6,0,0,0-.14-.61s0,0,0,0-.07-.22-.11-.33a7,7,0,0,0-.56-1.25c-.08-.12-.14-.25-.22-.37a8.76,8.76,0,0,0-1.14-1.42l-.27-.26-.38-.35c-.18-.16-.37-.31-.59-.48a18.17,18.17,0,0,0-3.54-2.08c-.72-.32-1.47-.62-2.28-.91l-.15-.06c-.27-.09-.55-.18-.82-.25a3.27,3.27,0,0,0-.54-.13l-.12,0-.38-.08h-.06l-.2,0h0l-.44-.06h0l-.21,0h0a5.87,5.87,0,0,0-.62-.07h-.6s0,0,0,0h-.85a5.15,5.15,0,0,0-.55,0l-.59.06c-.29,0-.58.06-.88.11l-.25.05c-.39.06-.77.14-1.13.23l-.62.16a1.52,1.52,0,0,0-.28.09,2.24,2.24,0,0,0-.34.11l-.55.17-.41.15a6.78,6.78,0,0,0-.79.3l-1.33.59c-.49.23-1,.48-1.43.73h0c-.46.26-.92.53-1.36.8s-.7.43-1,.65l-.29.19-.62.45c-.58.4-1.14.82-1.66,1.24a11,11,0,0,0-1,.78c-.14.1-.26.22-.39.32l-.72.61-.33.31c-.28.24-.53.47-.76.7l-.49.46c-1.31,1.26-2.23,2.27-2.64,2.75h0c1.71-2.33,13.65-17.78,25-13.92.25.08.5.18.72.27,5.27,2,8.08,4.52,9.35,7.2v0c3.28,7-4.06,15-6.16,17.13.17-.18.32-.37.48-.57s.42-.54.62-.82.35-.45.51-.68l.63-.89c.37-.51.7-1,1-1.52s.59-1,.84-1.48h0l.18-.35a1.69,1.69,0,0,0,.17-.36,7.21,7.21,0,0,0,.33-.69c.16-.35.3-.69.42-1s.23-.64.32-.94a.14.14,0,0,1,0-.07,7.67,7.67,0,0,0,.23-.95A8.13,8.13,0,0,0,676.94,432.84Z" transform="translate(-54.99 -44.28)"/><path class="cls-25" d="M677,432.23c0,.2,0,.4,0,.61s-.1.61-.16,1c0,.12,0,.25-.08.37s-.09.38-.15.58c0,0,0,0,0,.07-.11.3-.21.62-.33.94s-.27.68-.43,1a6.07,6.07,0,0,1-.31.69l-.18.36-.18.35h0c-.24.49-.53,1-.83,1.49l-1,1.51c-.2.29-.42.58-.63.89s-.34.46-.51.69-.41.53-.62.81-.31.38-.48.57c0,0,0,.05-.07.08s-.18.2-.27.28a1.5,1.5,0,0,0-.16.14s0,0,0,0a7.61,7.61,0,0,1-1.84,1.28c-1.15-.41-2.81-1-4.75-1.75-1.11-.4-2.32-.87-3.57-1.36l-3.27-1.28c-1.3-.53-2.6-1.06-3.89-1.61a11.39,11.39,0,0,1-1.63-6.26.67.67,0,0,1,0-.2,11.55,11.55,0,0,1,1.88-5.74v0a11.93,11.93,0,0,1,1.41-1.79h0a14.4,14.4,0,0,1,8.12-4.18h0a15,15,0,0,1,1.8-.2h.09l.44.06h0l.2,0h.06l.38.08.12,0a3.27,3.27,0,0,1,.54.13c.27.07.55.16.83.25l.14.06c.81.29,1.57.59,2.28.91a18.58,18.58,0,0,1,3.55,2.08c.21.16.39.32.58.48l.38.35c.08.09.18.17.27.26a9.34,9.34,0,0,1,1.14,1.42c.07.12.15.24.21.37a5.87,5.87,0,0,1,.57,1.25c0,.11.07.22.11.33v0c.06.2.09.41.15.61,0,0,0,.06,0,.09a5.9,5.9,0,0,1,.09.72A8.25,8.25,0,0,1,677,432.23Z" transform="translate(-54.99 -44.28)"/><path class="cls-25" d="M605.74,406.51v0c-.07.39-.15.78-.25,1.16a18.55,18.55,0,0,1-1.82,4.59c-.28.48-.57.94-.88,1.4s-.46.61-.7.9c-.64-.16-1.33-.35-2.06-.56a134,134,0,0,1-20.19-7.57c-.2-.08-.41-.19-.63-.3-2.9-1.34-5.92-2.87-9-4.64a17.57,17.57,0,0,1,1.89-6.34,17.92,17.92,0,0,1,10-8.72h0a17.95,17.95,0,0,1,11.84-.07h0l.85.73c.32.28.62.57.93.87a9.61,9.61,0,0,1,.7.73c.25.27.51.52.75.8a10,10,0,0,1,.66.8,1.46,1.46,0,0,1,.26.33,5.25,5.25,0,0,1,.6.74c.24.3.47.61.68.93l.08.12a7.68,7.68,0,0,1,.55.81,2.6,2.6,0,0,1,.22.3c.21.32.42.65.61,1s.43.71.63,1.08c0,0,.06.11.1.16.21.36.39.73.57,1.09a48,48,0,0,1,3.63,9.51A.53.53,0,0,0,605.74,406.51Z" transform="translate(-54.99 -44.28)"/><path d="M606,404.23a18.86,18.86,0,0,1-.26,2.29l0-.12a47.79,47.79,0,0,0-3.63-9.52c-.18-.36-.36-.72-.57-1.08,0-.05-.06-.12-.1-.16-.2-.37-.4-.73-.64-1.1s-.39-.67-.6-1l-.21-.31c-.18-.27-.36-.54-.56-.81a8,8,0,0,1,2.6-.3h0A17.94,17.94,0,0,1,606,404.23Z" transform="translate(-54.99 -44.28)"/><path d="M607.4,406.28a6.89,6.89,0,0,1-1.43,1.14.21.21,0,0,1,0-.07c-.06-.28-.13-.55-.2-.82h0a18.86,18.86,0,0,0,.26-2.29,17.94,17.94,0,0,0-4-12.1,8.45,8.45,0,0,1,1.61.25h0A40.19,40.19,0,0,1,607.4,406.28Z" transform="translate(-54.99 -44.28)"/><path class="cls-26" d="M638.41,381.2a4.1,4.1,0,0,1-.26.41C635,385.75,625,384.08,625,384.08s-25.56-26.68-38.73-28.48c-2.23-.31-4.57-.5-6.89-.62a161.64,161.64,0,0,0-23,.62s29.59-12.42,41.25-9.26,37.84,28.34,37.84,28.34-.34,2.79-3.8,5.7c2.59-1,6-2.8,6-2.8S641.2,376.56,638.41,381.2Z" transform="translate(-54.99 -44.28)"/><path class="cls-26" d="M698.08,408.78c-.28.78-.56,1.58-.86,2.38-.18.47-.35.95-.53,1.43,0,0,0,.05,0,.08s.41.08-2.1,4.15c-.11.17-.22.36-.34.54s-.34.52-.52.8a36.64,36.64,0,0,0-4-5,5.3,5.3,0,0,0-2.31-1.58c-3.41-.63-26.46-10.05-29.49-9.83,0,0-2.49-6.27-.62-9.6,1.18-2.11,1.47,1,1.52,3.57a13.64,13.64,0,0,1,1.32-3.9,1.64,1.64,0,0,1,.63-.63c2-.84,35.85,10.13,36.71,14.8C697.64,406.87,698,407.81,698.08,408.78Z" transform="translate(-54.99 -44.28)"/><path class="cls-27" d="M603.67,412.28c-.28.48-.57.94-.88,1.4s-.46.61-.7.9c-.64-.16-1.33-.35-2.06-.56a134,134,0,0,1-20.19-7.57c-.2-.08-.41-.19-.63-.3-2.9-1.34-5.92-2.87-9-4.64a17.57,17.57,0,0,1,1.89-6.34c3.09-.46,9.28-.09,13.57,7.92S599.29,412.26,603.67,412.28Z" transform="translate(-54.99 -44.28)"/><path class="cls-27" d="M676.71,434.16c0,.18-.09.38-.15.58,0,0,0,0,0,.07-.11.3-.21.62-.33.94s-.27.68-.43,1a6.07,6.07,0,0,1-.31.69l-.18.36-.18.35h0c-.24.49-.53,1-.83,1.49l-1,1.51c-.2.29-.42.58-.63.89s-.34.46-.51.69-.41.53-.62.81-.31.38-.48.57c0,0,0,.05-.07.08s-.18.2-.27.28a1.5,1.5,0,0,0-.16.14s0,0,0,0a7.61,7.61,0,0,1-1.84,1.28c-1.15-.41-2.81-1-4.75-1.75-1.11-.4-2.32-.87-3.57-1.36l-3.27-1.28c-1.3-.53-2.6-1.06-3.89-1.61a11.39,11.39,0,0,1-1.63-6.26c1.85-1,5.24-1.91,7.92,2.43S671,436.92,676.71,434.16Z" transform="translate(-54.99 -44.28)"/><path d="M674.52,437.25a9,9,0,0,1-1,3.81h0a9.23,9.23,0,0,1-5.62,4.58c-1.07-.38-2.42-.88-4-1.46-1.11-.4-2.32-.87-3.57-1.36l-2.7-1.06a9.12,9.12,0,0,1-1.45-5.38,9.18,9.18,0,0,1,9.6-8.73,4.56,4.56,0,0,1,.75.06,5.89,5.89,0,0,1,.82.15h0a7.43,7.43,0,0,1,2.1.77A9.13,9.13,0,0,1,674.52,437.25Z" transform="translate(-54.99 -44.28)"/><path d="M603,406.85a10.76,10.76,0,0,1-.22,1.73A11.55,11.55,0,0,1,600,414a133.24,133.24,0,0,1-20.19-7.57c0-.23,0-.47,0-.69a11.57,11.57,0,0,1,12.11-11,11.75,11.75,0,0,1,2.24.33,6.82,6.82,0,0,1,.88.26A11.56,11.56,0,0,1,603,406.85Z" transform="translate(-54.99 -44.28)"/><circle class="cls-20" cx="608.44" cy="383.69" r="6.66"/><circle class="cls-20" cx="534.92" cy="348.78" r="8.27"/><path class="cls-26" d="M703.63,355.48S697,257.54,597.67,263s-104,92.47-104,92.47L510.13,371S577.16,208.23,703.63,355.48Z" transform="translate(-54.99 -44.28)"/><path class="cls-28" d="M694.06,353.62a11.46,11.46,0,0,0,4.29,2c4.36.87,12.28,9,18.58,1,7.06-8.88,8.58-26.47,3.5-29.36-3.92-2.24-21.78,11.85-29.64,18.32a3.8,3.8,0,0,0,.24,5.92Z" transform="translate(-54.99 -44.28)"/><path class="cls-26" d="M514.86,379.79s4,4.64,6.62,0c8.54-15.39,26.61-56,45.88-54,0,0,3.85-25.63,22.56-29.78l-35.24-23.89s-51.51-10.34-61,79.18l16.19,21.1Z" transform="translate(-54.99 -44.28)"/><path class="cls-26" d="M507.35,454.76c-16-28.2-12.1-50.38-12.1-50.38l2.6.38C499.73,413.6,504.43,436,507.35,454.76Z" transform="translate(-54.99 -44.28)"/><path class="cls-7" d="M510.12,372.92c-1.37,7.9-1.61,39.11-4.55,42.4s-12.46-1.94-21.89-16.9c-.28-.44-.56-.89-.83-1.35-9.69-16-1.15-43.73,7.45-45.81,3.3-.79,7,2.23,10.29,6.24A88.06,88.06,0,0,1,510.12,372.92Z" transform="translate(-54.99 -44.28)"/><path class="cls-29" d="M679,344.09c12.32,12.71,39.33,8.84,48.4-6.71A26.83,26.83,0,0,0,731,324c.35-35.55-24.34-41.56-24.34-41.56s-3.35,43.67-19.36,36.1c-3.88-1.84-11.51-1.47-14.26,1.44C669.31,323.91,672,336.88,679,344.09Z" transform="translate(-54.99 -44.28)"/><path class="cls-30" d="M700.19,321c.65-3,5.52-48.89-12.6-58S654,253.61,654,253.61s12.37,59.22-3.34,60.12S691.38,361,700.19,321Z" transform="translate(-54.99 -44.28)"/><path class="cls-31" d="M647.23,315.73s21.91,6.4,21.27-10.58-16.08-61.32-35-60.18-41.62,2.37-41.62,2.37S636.54,324.52,647.23,315.73Z" transform="translate(-54.99 -44.28)"/><path class="cls-32" d="M619.87,299.18S637,293.24,622.55,273s-39.22-28.09-49.65-24.54,18.42,49.83,25.6,49.25S619.87,299.18,619.87,299.18Z" transform="translate(-54.99 -44.28)"/><path class="cls-33" d="M583.35,298.53c-2-.24-61.73-29.95-74.39-25.4s52.66-41,77.34-12.17S591.24,299.49,583.35,298.53Z" transform="translate(-54.99 -44.28)"/><path class="cls-34" d="M631.71,380.38c-18.32-29.53-45.37-26.7-52.32-25.4a161.64,161.64,0,0,0-23,.62s29.59-12.42,41.25-9.26,37.84,28.34,37.84,28.34S635.17,377.47,631.71,380.38Z" transform="translate(-54.99 -44.28)"/><path class="cls-26" d="M638.41,381.2a4.1,4.1,0,0,1-.26.41c-1-1.91-6.44-1.23-6.44-1.23,2.59-1,6-2.8,6-2.8S641.2,376.56,638.41,381.2Z" transform="translate(-54.99 -44.28)"/><path class="cls-34" d="M698.08,408.78c-.28.78-.56,1.58-.86,2.38-.18.47-.35.95-.53,1.43,0,0,0,.05,0,.08s.41.08-2.1,4.15c-.11.17-.22.36-.34.54s-.34.52-.52.8a36.64,36.64,0,0,0-4-5c1.62-.86,3.2-2.09,2.45-3.41-1.22-2.13-26-14.85-32-17.93a1.64,1.64,0,0,1,.63-.63c2-.84,35.85,10.13,36.71,14.8C697.64,406.87,698,407.81,698.08,408.78Z" transform="translate(-54.99 -44.28)"/><path class="cls-35" d="M488.11,369.14s12,6.74,13.59,13-5.37,7.24-1.61,11.28-1.7,3.89-4.65,2.07S483.31,372.42,488.11,369.14Z" transform="translate(-54.99 -44.28)"/><path class="cls-36" d="M482,374.05c-1.59,8.89-.19,17.71,1.67,24.37-.28-.44-.56-.89-.83-1.35-9.69-16-1.15-43.73,7.45-45.81,3.3-.79,7,2.23,10.29,6.24C495,358.07,484.36,360.91,482,374.05Z" transform="translate(-54.99 -44.28)"/><path class="cls-6" d="M464.11,555l-26.3,53.48a25.67,25.67,0,0,0-6.43-.64L437,598.7Z" transform="translate(-54.99 -44.28)"/><path class="cls-6" d="M412.88,659.12l-7.23,14.69-18.12,3.08s4.42-9,11.24-22.22C403.29,656.25,408.05,657.74,412.88,659.12Z" transform="translate(-54.99 -44.28)"/><path class="cls-6" d="M503.42,631.56l-7.6-2.12c-22.35-9.56-54.44-22.37-64.44-21.65L437,598.7C459.31,609.16,503.42,631.56,503.42,631.56Z" transform="translate(-54.99 -44.28)"/><path class="cls-37" d="M719.93,677.14c2.43-25.37-18.06-29.23-27.58-29.67,20.37-12.52,31.73-.29,31.73,1.7C724.08,650.67,729.28,664.85,719.93,677.14Z" transform="translate(-54.99 -44.28)"/><path class="cls-38" d="M344.54,307.63c-4.67,1.22-42.75,70.64-42.75,70.64s-4.61,2.47-11,6c-9.62,5.28-23.35,12.92-31.76,18.1-14,8.62-40.61-20.13-35.21-21.07,2.66-.48,8.29-10.4,13.33-20.35.48-.94,1-1.87,1.4-2.8,1.67-3.37,3.23-6.64,4.53-9.43.41-.9.81-1.74,1.17-2.52s.77-1.65,1.09-2.35c.93-2,1.47-3.29,1.47-3.29l16.17-41s56,4.44,75.32,6.8h0c1.35.16,2.52.32,3.47.45C344.1,307.18,345.18,307.46,344.54,307.63Z" transform="translate(-54.99 -44.28)"/><path class="cls-39" d="M333.36,311.48a141.34,141.34,0,0,1-15.16,22.36,57.51,57.51,0,0,1-12.61,11.5c-9.41,5.88-45.88,12.5-67,12.79,1.67-3.37,3.23-6.64,4.53-9.43.41-.9.81-1.74,1.17-2.52s.77-1.65,1.09-2.35Z" transform="translate(-54.99 -44.28)"/><path class="cls-40" d="M351.67,281.81c-.28.43-.57.85-.85,1.26-44,65.27-24.92,46.24-75.26,57.49-42.77,9.55-66.41-7.71-72.75-13.33a23.4,23.4,0,0,1-1.75-1.69c-12.68-22.7-19-42.35-21.5-58.8-.51-3.31-.86-6.45-1.08-9.5-1.91-26.82,6.5-43.65,11.13-49.87,5.68-7.62,4.49-18.45,6-29.32a1.46,1.46,0,0,1,0-.31c.17-1.14.37-2.31.61-3.46a38,38,0,0,1,1.63-5.63l0-.08a8.32,8.32,0,0,1,.3-.78,4.66,4.66,0,0,1,.23-.58c.15-.33.28-.65.44-1s.29-.61.44-.92c1-2.08,2.14-4.3,3.45-6.63l.49-.89c13.24-23,41.8-55.43,80.27-50.11,50.63,7,103.84,46.94,107.2,49.52,1.8,1.38,3.12,4.82,3.62,10C396.22,186.37,387.11,229.33,351.67,281.81Z" transform="translate(-54.99 -44.28)"/><path class="cls-38" d="M353.7,281.52c-5.22,7.73-11.71,14.56-15.39,20.16l1.67,0c-10.31,15.64-17.18,23.67-21.78,28.08-8,7.67-14.3,4.38-42.73,10.73a111.43,111.43,0,0,1-24,2.82c-2.93,0-5.73-.11-8.39-.35-1.4-.11-2.77-.27-4.11-.45-20.12-2.71-32-11.62-36.24-15.36q-2.26-4.65-4.18-9.08c-7.94-18.42-11.5-34.42-12.47-47.89-1.91-26.82,6.5-43.65,11.13-49.87,5.68-7.63,4.49-18.47,6-29.33,0-.11,0-.2,0-.3.18-1.14.38-2.31.61-3.46a39,39,0,0,1,1.64-5.64l0-.07c.08-.26.19-.52.29-.78s.15-.39.24-.58.28-.65.44-1c1.09-2.34,2.38-4.87,3.89-7.56,13-23,41.8-56.38,80.76-51,43.69,6,89.3,36.61,103.14,46.54C396.13,186.33,389.15,229,353.7,281.52Z" transform="translate(-54.99 -44.28)"/><path class="cls-41" d="M383.61,283.77C377.9,287.32,321.08,344,321.08,344c2.38-4.16,39.26-72.89,39.26-72.89l-14-6.2c14.2-18.72-7.46-55.58-.65-58,6.54-2.33,30.11-53.88-16.07-63.36q-2.74-.56-5.81-.91c-53.87-6.24-66.27-18.45-73.64-20.16s-27,9.85-27,9.85,4.2-9.12,31.47-21.47c19.93-9,72.75-13.11,115.48,9a107.88,107.88,0,0,1,41,36.23C451.32,216.76,389.31,280.21,383.61,283.77Z" transform="translate(-54.99 -44.28)"/><path class="cls-42" d="M383.61,283.77C377.9,287.32,321.08,344,321.08,344c2.38-4.16,39.26-72.89,39.26-72.89l-14-6.2c14.2-18.72-7.46-55.58-.65-58,6.54-2.33,30.11-53.88-16.07-63.36,24,0,49.56-1.26,47.82-6.68a174.1,174.1,0,0,0-7.36-17,107.88,107.88,0,0,1,41,36.23C451.32,216.76,389.31,280.21,383.61,283.77Z" transform="translate(-54.99 -44.28)"/><path class="cls-38" d="M360.34,271.09c-4,6.91-24,30.92-23.86,35.34.12,4.27,10.76,6.55,27.62,1.2.5-.16,1-.32,1.51-.5,17.73-6,29.08-32.68,23.85-39.81-2-2.74-6.78-2.81-11.89-1.88A88.22,88.22,0,0,0,360.34,271.09Z" transform="translate(-54.99 -44.28)"/><path class="cls-43" d="M375.08,282.39s-13.54-2.61-18.77,1.18-.57,9-6.05,9.66-1.21,4.07,2.21,4.58S376.64,288,375.08,282.39Z" transform="translate(-54.99 -44.28)"/><path class="cls-44" d="M381.1,290.08c-4.52,7.82-11.28,13.66-17,17.55.5-.16,1-.32,1.51-.5,17.73-6,29.08-32.68,23.85-39.81-2-2.74-6.78-2.81-11.89-1.88C381.48,269.49,387.78,278.52,381.1,290.08Z" transform="translate(-54.99 -44.28)"/><path class="cls-19" d="M323.78,250.61c-1.22-.06-2.45-.12-3.65-.22l-.78-1.43c-.29-.57-.6-1.12-.92-1.67-.54-.92-1.07-1.8-1.62-2.66l-.59-.93c-.87-1.32-1.75-2.54-2.64-3.69-.29-.39-.58-.76-.88-1.12l-.67-.81-.66-.76a1,1,0,0,0-.11-.15,40.63,40.63,0,0,0-3.26-3.29c-.22-.21-.45-.4-.67-.6a33.73,33.73,0,0,0-5.28-3.81l-.18-.11a30.36,30.36,0,0,0-3.24-1.6l-.8-.33c-.28-.1-.55-.21-.84-.3s-.52-.17-.78-.26a18.38,18.38,0,0,0-1.86-.51c-.69-.17-1.4-.32-2.09-.43l-1.05-.15c-.52-.06-1-.11-1.56-.13s-1-.05-1.5-.07l-1.29,0-1,.06c-.36,0-.73,0-1.09.09s-.69.07-1,.13a3,3,0,0,0-.42.06,7.65,7.65,0,0,0-.94.15c-.38.07-.76.14-1.14.23s-.73.15-1.09.24l-.35.09c-.39.1-.76.2-1.13.32s-.81.24-1.21.37a1.27,1.27,0,0,0-.18.06l-1.15.41a48.36,48.36,0,0,0-9.11,4.55l-.82.54c-.79.52-1.53,1-2.22,1.53-2.53-1.36-3.87-2.23-3.87-2.23s.19-.17.28-.27a55.66,55.66,0,0,1,6.5-5l.81-.54a48.77,48.77,0,0,1,9.12-4.55c.37-.15.75-.28,1.15-.41a1.27,1.27,0,0,1,.18-.06c.4-.13.79-.26,1.21-.37s.74-.22,1.12-.32l.36-.09c.36-.09.73-.18,1.09-.24s.76-.16,1.14-.23A7.36,7.36,0,0,1,284,220a2.9,2.9,0,0,1,.41-.06c.34-.06.68-.1,1-.13s.72-.07,1.09-.09l1-.06,1.29,0c.49,0,1,0,1.49.07s1,.07,1.56.13l1.05.15c.7.11,1.4.26,2.1.43a18.38,18.38,0,0,1,1.86.51c.26.09.53.16.78.26s.56.2.83.3.54.21.81.33a30.36,30.36,0,0,1,3.24,1.6l.18.11a33.21,33.21,0,0,1,5.27,3.81c.22.2.46.39.67.6a39.06,39.06,0,0,1,3.26,3.29.81.81,0,0,1,.12.14c.21.26.44.52.66.77l.67.81c.3.36.59.73.88,1.12.89,1.15,1.77,2.37,2.64,3.69l.59.93c.54.86,1.08,1.74,1.62,2.66.31.55.63,1.1.92,1.67C321.33,245.34,322.57,247.87,323.78,250.61Z" transform="translate(-54.99 -44.28)"/><path class="cls-20" d="M320.13,250.39c-4.47-.31-8.75-.82-12.82-1.5a142.29,142.29,0,0,1-16.21-3.61c-1.28-.36-2.51-.73-3.71-1.11a137.88,137.88,0,0,1-16.75-6.42c-2.72-1.25-5-2.39-6.66-3.32.69-.49,1.43-1,2.22-1.53l.82-.54c.37-.24.77-.48,1.17-.72a49,49,0,0,1,4.7-2.49c1-.48,2.13-.93,3.24-1.34.37-.14.76-.29,1.16-.41a.48.48,0,0,1,.17-.05c.4-.14.79-.27,1.22-.39s.73-.21,1.11-.3l.36-.1c.36-.09.73-.18,1.09-.25l1.14-.22a9.22,9.22,0,0,1,.94-.15l.41-.07c.33-.05.68-.09,1-.12s.71-.06,1.09-.09.67,0,1,0,.87,0,1.29,0,1,0,1.5.07a13.5,13.5,0,0,1,1.55.13c.36,0,.7.09,1.05.15.7.12,1.41.26,2.11.42.36.08.71.17,1.07.28l.77.24c.27.09.55.16.78.26s.58.2.84.31.54.2.81.32a29.45,29.45,0,0,1,3.24,1.6l.18.11c.52.3,1.05.62,1.57,1a34.26,34.26,0,0,1,3.71,2.84c.21.2.45.39.67.61a39.07,39.07,0,0,1,3.26,3.29.64.64,0,0,1,.1.13l.67.77c.24.28.45.54.67.81s.59.73.88,1.13c.89,1.14,1.78,2.37,2.64,3.68l.6.93c.54.85,1.07,1.74,1.62,2.67.3.54.62,1.1.91,1.66S319.87,249.91,320.13,250.39Z" transform="translate(-54.99 -44.28)"/><path class="cls-19" d="M223.15,220.16a3,3,0,0,1-1.53.27c0-.15,0-.32,0-.47,0-.33,0-.66,0-1s-.05-.66-.07-1c-.08-.86-.17-1.77-.29-2.69-.08-.51-.16-1-.25-1.57s-.21-1.06-.33-1.6-.26-1.08-.4-1.6-.33-1.05-.51-1.57c-.09-.26-.18-.52-.29-.79a17.61,17.61,0,0,0-1.07-2.38,5.54,5.54,0,0,0-.3-.53,7.68,7.68,0,0,0-.47-.78c-.21-.32-.42-.64-.65-.94s-.49-.62-.75-.92a10.58,10.58,0,0,0-.81-.83,11,11,0,0,0-.89-.78,8.47,8.47,0,0,0-1.09-.76h0a9.72,9.72,0,0,0-1.18-.67c-.3-.14-.61-.28-.93-.4a23.5,23.5,0,0,0-2.37-.79,17.22,17.22,0,0,0-4.16-.7c-.27,0-.53,0-.79,0-4.48.12-7.53,2.71-9.47,7.51,1.63-8.54,5.07-13.23,11.14-13.39a6.76,6.76,0,0,1,.78,0,17.59,17.59,0,0,1,4.16.69c.77.22,1.55.48,2.37.79.33.12.63.27.93.41a13.48,13.48,0,0,1,1.19.65h0c.38.25.74.5,1.09.78s.6.5.88.77a8,8,0,0,1,.81.84c.27.29.51.6.75.91s.45.62.66.95.32.5.47.78.2.34.29.52a18.37,18.37,0,0,1,1.08,2.39c.1.26.19.52.28.78.19.52.36,1.05.51,1.58s.28,1.06.4,1.6.24,1.06.34,1.6.17,1.05.24,1.57c.13.92.22,1.82.29,2.69,0,.35.05.69.07,1s0,.67,0,1c0,.63,0,1.24,0,1.81,0,1.93-.08,3.39-.13,4.07h0A1.68,1.68,0,0,0,223.15,220.16Z" transform="translate(-54.99 -44.28)"/><path class="cls-20" d="M221.61,220.44a32.4,32.4,0,0,1-6.53-1.24c-2.77-.73-5.93-1.72-9-2.76h0c-4.82-1.63-9.37-3.33-11.77-4.25a7.94,7.94,0,0,1-.38-2.32,2.42,2.42,0,0,1,0-.38v-.06a6.51,6.51,0,0,1,.1-1.14c.14-1.11.3-2.16.5-3.17a18.68,18.68,0,0,1,1.3-2.57,9.39,9.39,0,0,1,8.16-4.89h.78a17.09,17.09,0,0,1,4.17.69c.77.21,1.55.48,2.37.79.32.12.63.26.93.4a11.26,11.26,0,0,1,1.18.67h0c.37.24.73.49,1.06.75s.61.51.89.77.56.55.81.84a9.31,9.31,0,0,1,.74.92c.24.3.45.62.67.94a8.42,8.42,0,0,1,.46.78l.08.13a3.84,3.84,0,0,1,.21.4,14.88,14.88,0,0,1,1.08,2.37c.1.27.2.54.29.8.19.52.36,1.05.5,1.57s.28,1.06.4,1.6.24,1.06.35,1.61.17,1,.24,1.56c.13.92.21,1.83.29,2.69,0,.35.05.69.06,1s0,.68.06,1C221.61,220.12,221.61,220.28,221.61,220.44Z" transform="translate(-54.99 -44.28)"/><path d="M193.88,209.48a2.42,2.42,0,0,0,0,.38l0,0Z" transform="translate(-54.99 -44.28)"/><path d="M223.16,220h0a1.06,1.06,0,0,1,0,.2C223.15,220.1,223.16,220,223.16,220Z" transform="translate(-54.99 -44.28)"/><path class="cls-45" d="M324,232.93s-3.78-28.82-24.47-31c0,0-12.47-1.51-15.69,0S313.14,203.48,324,232.93Z" transform="translate(-54.99 -44.28)"/><path class="cls-46" d="M227.83,189.68s-11.69-16.4-22.72-10.38-6.8,7.55-6.8,7.55S208.19,174.8,227.83,189.68Z" transform="translate(-54.99 -44.28)"/><path class="cls-47" d="M303.78,228.1a18.07,18.07,0,0,1-8.36,15.18c-.2.14-.41.26-.62.38l0,0a13,13,0,0,1-1.17.61,17.89,17.89,0,0,1-2.49,1l-.07,0c-1.25-.35-2.47-.72-3.64-1.09a137.88,137.88,0,0,1-16.75-6.42,17.69,17.69,0,0,1-1.72-3.49,16.08,16.08,0,0,1-.73-2.62,15.32,15.32,0,0,1-.3-2.08,14.14,14.14,0,0,1-.06-1.46,15.45,15.45,0,0,1,.09-1.81,16.88,16.88,0,0,1,.48-2.68c.81-.67,1.68-1.33,2.58-2s1.91-1.3,2.94-1.89a30,30,0,0,1,9.26-3.58h0a25.47,25.47,0,0,1,6.06-.86,17,17,0,0,1,1.75,0,23.18,23.18,0,0,1,9.8,2.88h0a17.39,17.39,0,0,1,2.43,5.57h0v0A17.4,17.4,0,0,1,303.78,228.1Z" transform="translate(-54.99 -44.28)"/><path class="cls-47" d="M218.43,202.42a14.13,14.13,0,0,1-8.72,13,14.73,14.73,0,0,1-1.84.62,15.8,15.8,0,0,1-1.82.35c-4.82-1.63-9.37-3.33-11.77-4.25a7.94,7.94,0,0,1-.38-2.32l0,0v-.46c0-.25,0-.59,0-1a31.4,31.4,0,0,1,.43-4.36c0-.32.1-.65.16-1,.14-.77.33-1.56.55-2.36.06-.17.1-.33.15-.5,1.3-4.41,3.91-8.93,9.14-10.18h0a14.63,14.63,0,0,1,5.34-.14c.51.06,1.05.17,1.59.29a14,14,0,0,1,5.29,5.31h0s0,0,0,0A14.05,14.05,0,0,1,218.43,202.42Z" transform="translate(-54.99 -44.28)"/><path d="M323.78,250.61c-1.21-2.74-2.45-5.28-3.74-7.6-.29-.55-.61-1.11-.91-1.65-.55-.93-1.08-1.81-1.62-2.67-.22-.32-.4-.62-.6-.93-.41-.62-.82-1.22-1.22-1.79a.47.47,0,0,1-.09-.12c-.23-.31-.44-.61-.67-.9s-.43-.6-.66-.88-.58-.75-.88-1.13l-.67-.8a4.24,4.24,0,0,0-.33-.39c-.14-.17-.3-.34-.44-.52-.81-.91-1.62-1.75-2.44-2.53-.28-.28-.55-.53-.82-.76a3,3,0,0,0-.34-.3,2.39,2.39,0,0,0-.34-.31c-.39-.34-.77-.67-1.16-1-.14-.12-.27-.23-.42-.34s0,0-.05,0c-.31-.24-.6-.47-.91-.69l-.07-.05s0,0-.06,0a0,0,0,0,1,0,0c-.43-.31-.84-.6-1.27-.86a7.45,7.45,0,0,0-.79-.5h0a3.12,3.12,0,0,0-.53-.3.33.33,0,0,0-.17-.11c-.27-.16-.55-.32-.81-.45a17.31,17.31,0,0,0-1.62-.8,11.19,11.19,0,0,0-1.21-.51,1.84,1.84,0,0,0-.41-.16,7.13,7.13,0,0,0-.84-.31l-.38-.13a2.07,2.07,0,0,0-.4-.13,8.78,8.78,0,0,0-.93-.27c-.59-.18-1.2-.33-1.8-.45l-.17,0c-.35-.08-.69-.14-1-.2l-1.06-.14c-.52-.05-1-.11-1.55-.13s-1-.06-1.5-.07-.86,0-1.29,0-.67,0-1,.05-.71,0-1.07.09-.71.07-1,.12L284,220c-.32,0-.64.08-.94.14l-1.14.24c-.36.06-.73.15-1.09.24-.12,0-.24,0-.36.09-.38.1-.75.2-1.13.32s-.8.24-1.2.37l-.19.06c-.38.13-.77.26-1.14.41-.77.28-1.51.57-2.23.89l-.75.33c-.47.21-.92.42-1.36.65l-1.22.62-.9.48c-.86.48-1.67,1-2.44,1.45l-.21.13-.82.54a53.14,53.14,0,0,0-6.49,5l-.29.26c-.15.13-.24.23-.31.29a1.63,1.63,0,0,1,.17-.22,52.88,52.88,0,0,1,8.43-8.66,42.31,42.31,0,0,1,5.52-3.84,30,30,0,0,1,9.26-3.58h0a25.47,25.47,0,0,1,6.06-.86,23,23,0,0,1,11.55,2.92h0a31.26,31.26,0,0,1,7.54,5.82.58.58,0,0,0,.13.14c9.92,9.59,14.72,24.51,15.25,26.3C323.75,250.55,323.77,250.57,323.78,250.61Z" transform="translate(-54.99 -44.28)"/><path d="M223.18,219.94c0-.67.13-2.13.13-4.07,0-.22,0-.46,0-.7s0-.21,0-.33c0-.32,0-.65,0-1s0-.61-.05-.91c0-.71-.09-1.44-.18-2.19,0-.44-.1-.9-.16-1.35s-.16-1-.26-1.58-.15-.8-.25-1.21-.18-.8-.28-1.19-.21-.8-.33-1.2-.24-.79-.38-1.18-.39-1.05-.6-1.55c-.12-.29-.25-.57-.38-.86-.06-.12-.11-.23-.18-.35s-.22-.45-.34-.67c-.24-.43-.48-.84-.74-1.23s-.35-.51-.53-.75h0a.21.21,0,0,0,0-.06,7.89,7.89,0,0,0-.7-.85,3.58,3.58,0,0,0-.27-.29l-.1-.12-.12-.12-.07-.06a7.07,7.07,0,0,0-.69-.65,1.75,1.75,0,0,0-.33-.28,6.14,6.14,0,0,0-.65-.49,3,3,0,0,0-.56-.37.2.2,0,0,0-.09-.06c-.16-.1-.32-.2-.49-.29a12.16,12.16,0,0,0-1.41-.66l-.13-.06c-.82-.31-1.6-.57-2.36-.79h0l0,0a19.13,19.13,0,0,0-1.95-.43,14.64,14.64,0,0,0-2.19-.24q-.4,0-.78,0l-.73,0-.65.08-.44.08a3.16,3.16,0,0,0-.55.13.9.9,0,0,0-.28.08,2.81,2.81,0,0,0-.49.16,3.12,3.12,0,0,0-.48.18l-.52.24c-.17.1-.34.18-.5.28a4.05,4.05,0,0,0-.35.21,2.33,2.33,0,0,0-.37.27,6.06,6.06,0,0,0-.79.65,3.17,3.17,0,0,0-.37.36,7.79,7.79,0,0,0-.76.85,9,9,0,0,0-.57.77l0,.06c-.21.32-.41.65-.61,1l0,0c-.18.34-.36.69-.53,1.06a1.38,1.38,0,0,0-.08.17c-.14.32-.29.66-.42,1s-.27.69-.39,1l-.08.24-.18.55c-.08.27-.16.53-.23.81-.13.48-.26,1-.37,1.47s-.21.92-.3,1.41c0,0,0,.07,0,.09-.2,1-.36,2.06-.5,3.17a6.51,6.51,0,0,0-.1,1.14,34,34,0,0,1,1.32-9.24c1.3-4.42,3.92-8.94,9.16-10.18a15.44,15.44,0,0,1,6.93.15,25.16,25.16,0,0,1,3.28,1l.73.25C226.54,196,223.69,216.81,223.18,219.94Z" transform="translate(-54.99 -44.28)"/><path class="cls-41" d="M331.78,219.15s-13.49-17.68-17.6-20.63a9.9,9.9,0,0,0-1.33-.72c-5.61-2.6-23.33-7.58-31.56-9.84a12.42,12.42,0,0,1-7.85-6.19c-5-9.69,12.81-5.11,28.27.65a153.92,153.92,0,0,1,19.39,8.47C329.46,195.89,331.78,219.15,331.78,219.15Z" transform="translate(-54.99 -44.28)"/><path class="cls-41" d="M233.58,173.36c-1.56.54-6.57-1-11.9-2.76-3.74-1.26-7.64-2.67-10.6-3.62-3.74-1.2-8.29-.88-11.73-.26,1-2.12,2.14-4.4,3.45-6.79l.49-.9a35.93,35.93,0,0,1,12.38.16c9.42,1.47,18.93,5.17,21,6.47C239.81,167.66,235.92,172.53,233.58,173.36Z" transform="translate(-54.99 -44.28)"/><path class="cls-48" d="M262.36,244.83s27.11,13.24,33.21,14.06C295.57,258.89,264,258.59,262.36,244.83Z" transform="translate(-54.99 -44.28)"/><path class="cls-49" d="M215.86,228.38s-14.59,4.46-20.79-1.08C195.07,227.3,213.13,224.46,215.86,228.38Z" transform="translate(-54.99 -44.28)"/><path class="cls-50" d="M344.54,307.63c-4.67,1.22-42.75,70.64-42.75,70.64s-4.61,2.47-11,6c7.57-21,43.1-67.24,51-77.42C344.1,307.18,345.18,307.46,344.54,307.63Z" transform="translate(-54.99 -44.28)"/><path class="cls-51" d="M331.78,219.15s-13.49-17.68-17.6-20.63a9.9,9.9,0,0,0-1.33-.72c-3.18-4.53-7.43-10.49-11.14-15.38a153.92,153.92,0,0,1,19.39,8.47C329.46,195.89,331.78,219.15,331.78,219.15Z" transform="translate(-54.99 -44.28)"/><path class="cls-38" d="M184.94,460.73c-32.78,42.38-61.28,45-70.17,44.61a19.58,19.58,0,0,1-2.87-.29c-42.46-48.24,13.6-142,14-143.71s5.28-12.45-15.66-30a.93.93,0,0,1-.15-.13h0c-20.76-17.54-14-36.84-14-36.84,3.65-40.78,16.07-41.51,27.65-32.41s22.23,27.78,22.67,26.49a.2.2,0,0,0,0-.12c0-4.52-4.48-15.85,3.45-21.45s19.82,2.77,18.12,7.06a3.81,3.81,0,0,0-.22.78c-1.1,5.11,2.32,19.45,9.3,32.57a12.22,12.22,0,0,1,1.13,3.08c3.35,14.4-15.35,37.86-17.26,43.27s-8.41,54.15-8.8,57c.81-.8,1.61-1.5,2.38-2.14,23.91-19.62,29.19,32.4,30.23,48C184.89,459.12,184.94,460.73,184.94,460.73Z" transform="translate(-54.99 -44.28)"/><path class="cls-52" d="M184.94,460.73c-32.78,42.38-61.28,45-70.17,44.61,18.45-4.13,41.9-22.59,49-39.35,4.52-10.74-4.44-39.38-4.44-39.38l25.43,29.85C184.89,459.12,184.94,460.73,184.94,460.73Z" transform="translate(-54.99 -44.28)"/><path class="cls-53" d="M233.58,173.36c-1.56.54-6.57-1-11.9-2.76-1.52-3-4-7.8-6-11.41,9.42,1.47,18.93,5.17,21,6.47C239.81,167.66,235.92,172.53,233.58,173.36Z" transform="translate(-54.99 -44.28)"/><path class="cls-54" d="M232.07,370.45s-22.32-13.3-38.19-9.12-35.91,42-40.69,46.77S175,447.44,175,473.29,232.07,370.45,232.07,370.45Z" transform="translate(-54.99 -44.28)"/><path class="cls-55" d="M283.59,388.22s-50.81,15.52-51.52-17.77c0,0-42.48,36.16-53.86,88.07-4.86,22.15-7,71.43,0,106.85S267.08,586.05,279,578.51s51-89.15,51.66-105.22S352,367.3,352,367.3s-14.59-14.08-28.17-9.17S288.52,389.93,283.59,388.22Z" transform="translate(-54.99 -44.28)"/><polygon class="cls-56" points="211.16 414.37 171.08 405.7 167.26 452.83 189.21 479.35 223.21 459.13 228.18 413.89 211.16 414.37"/><path class="cls-57" d="M309.3,364.62s49.51-27,60.85,22.8-36.79,92.76-36.79,92.76-16.84-21.9-24.06-21.9S280.83,384,309.3,364.62Z" transform="translate(-54.99 -44.28)"/><path class="cls-58" d="M362.57,306.83l-5.21,45.31a8.32,8.32,0,0,1-5.36,6.8l-85,32.7c-3.25,1.21-8.34-1.39-11.9-4.91a18.75,18.75,0,0,1-2.37-2.85,8.54,8.54,0,0,1-1.67-4.55v-42.4c0-3.47,1.57-6.87,4.85-8.06l64.54-23.6,8.73-3.2,15.56-5.69C350.54,294.26,363.3,300.69,362.57,306.83Z" transform="translate(-54.99 -44.28)"/><rect class="cls-59" x="197.72" y="294.28" width="2.63" height="19.57" rx="0.99"/><path class="cls-59" d="M255.34,370.92v15a1.27,1.27,0,0,1-.25.77,18.75,18.75,0,0,1-2.37-2.85v-13a1.31,1.31,0,0,1,2.62,0Z" transform="translate(-54.99 -44.28)"/><path class="cls-60" d="M262.06,333.31l90.6-33.15a7.49,7.49,0,0,1,10,7.92l-5.47,45.81a7.51,7.51,0,0,1-4.84,6.13l-85.13,31.45a7.48,7.48,0,0,1-10.07-7V340.33A7.47,7.47,0,0,1,262.06,333.31Z" transform="translate(-54.99 -44.28)"/><rect class="cls-61" x="197.72" y="316.37" width="2.63" height="6.96" rx="0.99"/><path class="cls-38" d="M356.59,332.94c-.88,11.91-7.95,28.67-16.33,32.65-6.78,3.21-31.42,14.83-41.74,24.06a19.38,19.38,0,0,0-3.64,4.07,6.13,6.13,0,0,0-.85,1.87,8.47,8.47,0,0,0-.23,1.5c-.89,10.52,7.76,44.16,9.63,51.26.06.21.11.41.15.57s.13.52.2.74c0,0,11.17,10.4,20.2,19.84,3,3.15,5.81,6.19,7.85,8.71,0,0-28.56,35.57-47.57,49-3.82,2.72-7.25,4.54-10,5-16.4,2.73-49.09-60.69-6.37-145,0,0-24.51-27.84,27.68-54.31,17.39-8.82,30.06-13.09,39.2-14.41C353.06,315.87,357.18,325,356.59,332.94Z" transform="translate(-54.99 -44.28)"/><path class="cls-62" d="M293.59,244.3a17.89,17.89,0,0,1-2.49,1l-.07,0c-1.25-.35-2.47-.72-3.64-1.09a137.88,137.88,0,0,1-16.75-6.42,17.69,17.69,0,0,1-1.72-3.49c1.4-2.35,4.51-5.37,11.05-4.94C287.41,229.83,294.16,239.6,293.59,244.3Z" transform="translate(-54.99 -44.28)"/><path d="M294,223.13a9.11,9.11,0,0,1-.06,1.05,11.57,11.57,0,0,1-23.09-1.05,11.83,11.83,0,0,1,.1-1.47c.95-.67,1.91-1.3,2.94-1.89a30,30,0,0,1,9.26-3.58h0a25.47,25.47,0,0,1,6.06-.86,17,17,0,0,1,1.75,0,10.79,10.79,0,0,1,1.67,2.39h0A11.38,11.38,0,0,1,294,223.13Z" transform="translate(-54.99 -44.28)"/><circle class="cls-20" cx="242.72" cy="187.78" r="8.27"/><path class="cls-62" d="M207.87,216.08a15.8,15.8,0,0,1-1.82.35c-4.82-1.63-9.37-3.33-11.77-4.25a7.94,7.94,0,0,1-.38-2.32l0,0v-.46c0-.25,0-.59,0-1a5.25,5.25,0,0,1,5.16-3.14C204.54,205.15,210.33,213,207.87,216.08Z" transform="translate(-54.99 -44.28)"/><path d="M211.08,198.85A9.17,9.17,0,0,1,194.34,204a27.54,27.54,0,0,1,.71-3.35c.06-.17.1-.33.15-.5,1.3-4.41,3.91-8.93,9.14-10.18A9.19,9.19,0,0,1,211.08,198.85Z" transform="translate(-54.99 -44.28)"/><circle class="cls-20" cx="157.67" cy="158.77" r="7.23"/><path class="cls-63" d="M356.59,332.94c-.88,11.91-7.95,28.67-16.33,32.65-6.78,3.21-31.42,14.83-41.74,24.06-7-12.07,13.39-12.44,25.75-20,13.67-8.41,12.79-15,23.36-33,7.63-13-5.14-16.91-12.86-18.05C353.06,315.87,357.18,325,356.59,332.94Z" transform="translate(-54.99 -44.28)"/><path class="cls-64" d="M286.4,484.94c-5.32-.48-1.22-79.38,0-82.66.49-1.31,5-6.2,8.48-8.56a6.13,6.13,0,0,0-.85,1.87,8.47,8.47,0,0,0-.23,1.5c-.89,10.52,7.76,44.16,9.63,51.26.06.21.11.41.15.57s.13.52.2.74C306.26,457.56,291.73,485.43,286.4,484.94Z" transform="translate(-54.99 -44.28)"/><path class="cls-65" d="M277,534.67a4.55,4.55,0,0,1-1,.48C274.91,535.49,275.28,535.31,277,534.67Z" transform="translate(-54.99 -44.28)"/><path class="cls-66" d="M331.83,478.21s-28.56,35.57-47.57,49c12.21-14.79,32.28-46,39.72-57.74C327,472.65,329.79,475.69,331.83,478.21Z" transform="translate(-54.99 -44.28)"/><path class="cls-67" d="M168,273.91a3.81,3.81,0,0,0-.22.78c-3.8-11.3-13.92,0-12.79.76s3,15.25-2.33,16.77c-2.5.7-4.65-1.37-6.25-3.8a.2.2,0,0,0,0-.12c0-4.52-4.48-15.85,3.45-21.45S169.66,269.62,168,273.91Z" transform="translate(-54.99 -44.28)"/><path class="cls-68" d="M108.8,274.13c-1.13,11.12-13.19,34.85-9,41.45,1.87,3,6.14,9.41,10.28,15.6-20.76-17.54-14-36.84-14-36.84,3.65-40.78,16.07-41.51,27.65-32.41C118.4,263.34,109.58,266.43,108.8,274.13Z" transform="translate(-54.99 -44.28)"/><path class="cls-69" d="M158.72,330.83s-11.12-18.17-20.91-19.35-17.71-5.89-19-8.53,9.6,16.39,13.75,13.94S157.4,327.63,158.72,330.83Z" transform="translate(-54.99 -44.28)"/><path class="cls-70" d="M153,412.19s-4.16,34.49-10.37,40c2.33-22.79,8.44-99.41,14-100.4,5.19-.91,16.73-28.77,21.56-41.42,3.35,14.4-15.35,37.86-17.26,43.27s-8.41,54.15-8.8,57" transform="translate(-54.99 -44.28)"/></svg>