<svg xmlns="http://www.w3.org/2000/svg" width="39.078" height="39.077" viewBox="0 0 39.078 39.077">
  <path id="linkedin-square" d="M6.03,32.717h5.877V15.061H6.03Zm6.259-23.1a3,3,0,0,0-.916-2.188,3.253,3.253,0,0,0-2.366-.865,3.387,3.387,0,0,0-2.4.865,2.858,2.858,0,0,0-.928,2.188,2.913,2.913,0,0,0,.9,2.175,3.229,3.229,0,0,0,2.353.877h.025a3.347,3.347,0,0,0,2.417-.878,2.892,2.892,0,0,0,.916-2.175Zm14.883,23.1h5.877V22.592q0-3.917-1.857-5.928a6.367,6.367,0,0,0-4.91-2.01,5.913,5.913,0,0,0-5.317,2.976h.051V15.061H15.137q.076,1.679,0,17.656h5.877V22.846a4.212,4.212,0,0,1,.178-1.425,3.939,3.939,0,0,1,1.145-1.514,2.871,2.871,0,0,1,1.882-.623q2.951,0,2.951,3.995v9.438ZM39.078,7.327V31.75a7.338,7.338,0,0,1-7.328,7.327H7.327a7.06,7.06,0,0,1-5.178-2.149A7.052,7.052,0,0,1,0,31.75V7.327A7.06,7.06,0,0,1,2.149,2.149,7.052,7.052,0,0,1,7.327,0H31.75a7.06,7.06,0,0,1,5.178,2.149,7.052,7.052,0,0,1,2.149,5.178Z" fill="#fff"/>
</svg>
