<svg id="Layer_1" data-name="Layer 1" xmlns="http://www.w3.org/2000/svg" viewBox="0 0 1920 581.17"><defs><style>.cls-1{fill:#f4a261;}.cls-2{fill:#6fbad1;}</style></defs><path class="cls-1" d="M767.35,518.37a33.79,33.79,0,0,0-33.8,33.79V664.34c0,53.38-28.4,78.94-71,78.94s-71-25.56-71-78.94V552.16a33.8,33.8,0,0,0-67.59,0V664.34c0,94.28,55.67,142,138.59,142s138.58-48.28,138.58-142V552.16A33.79,33.79,0,0,0,767.35,518.37Z" transform="translate(0 -249.41)"/><path class="cls-2" d="M1327.64,415.4c-40.33,0-73.84,17-93.72,48.28V283.21a33.8,33.8,0,1,0-67.59,0V560.8c0,92.18,63.12,151.63,153.19,149.91,82.61-1.59,149.11-70.86,147.81-153.48C1465.86,463.23,1395.08,415.4,1327.64,415.4Zm71.24,156.12c-3.05,40.71-35.55,73.59-76.3,76-55.7,3.29-92.4-36.89-88.35-92.76,3-40.75,35.44-73.92,76.24-76.14C1365.88,475.59,1403.06,515.75,1398.88,571.52Z" transform="translate(0 -249.41)"/><path class="cls-2" d="M1555.09,249.41a33.79,33.79,0,0,0-33.79,33.8V669.57a33.8,33.8,0,0,0,67.59,0V283.21A33.8,33.8,0,0,0,1555.09,249.41Z" transform="translate(0 -249.41)"/><path class="cls-2" d="M1886.21,422.79a33.79,33.79,0,0,0-33.8,33.79V565.34c0,52.26-29.53,78.95-71,78.95-42.6,0-71-25.56-71-78.95V456.58a33.8,33.8,0,0,0-67.59,0V565.34c0,100,61.34,142,126.09,142,36.92,0,66.45-16.47,83.49-47.14v35.21c0,54.52-26.13,76.68-72.13,76.68-28,0-48-8.07-60.51-25.47a31,31,0,0,0-25.2-12.59c-26.43,0-41.53,30.85-24.71,51.25,25.47,30.89,65.22,45.31,110.42,45.31,77.81,0,139.72-39.19,139.72-136.88V456.58A33.79,33.79,0,0,0,1886.21,422.79Z" transform="translate(0 -249.41)"/><path class="cls-2" d="M453,419.26a33.79,33.79,0,0,0-33.8,33.79V565.23c0,53.38-28.39,78.94-71,78.94s-71-25.56-71-78.94V453.05a33.79,33.79,0,0,0-33.79-33.79h0a33.79,33.79,0,0,0-33.79,33.79V565.23c0,53.38-28.4,78.94-71,78.94s-71-25.56-71-78.94V453.05a33.8,33.8,0,0,0-67.59,0V565.23c0,94.28,55.66,142,138.59,142,44,0,80.29-13.59,104.69-40.33,24.41,26.83,60.8,40.33,104.91,40.33,82.92,0,138.58-48.28,138.58-142V453.05A33.79,33.79,0,0,0,453,419.26Z" transform="translate(0 -249.41)"/><path class="cls-2" d="M976.93,418.1c-44.1,0-80.49,13.5-104.9,40.31-24.4-26.73-60.71-40.31-104.68-40.31-82.92,0-138.59,47.71-138.59,142V672.26a33.8,33.8,0,1,0,67.59,0V560.09c0-53.39,28.4-79,71-79s71,25.56,71,79V672.26a33.8,33.8,0,1,0,67.59,0V560.09c0-53.39,28.4-79,71-79s71,25.56,71,79V672.26a33.8,33.8,0,1,0,67.59,0V560.09C1115.51,466.38,1059.85,418.1,976.93,418.1Z" transform="translate(0 -249.41)"/></svg>